<?xml version="1.0" encoding="utf-8"?>
<!-- Generator: Adobe Illustrator 28.3.0, SVG Export Plug-In . SVG Version: 6.00 Build 0)  -->
<svg version="1.1" id="Layer_1" xmlns="http://www.w3.org/2000/svg" xmlns:xlink="http://www.w3.org/1999/xlink" x="0px" y="0px"
	 viewBox="0 0 464 446" style="enable-background:new 0 0 464 446;" xml:space="preserve">
<style type="text/css">
	.st0{clip-path:url(#SVGID_00000060748924576315209830000017595678551991327118_);}
	.st1{fill:#FFD500;}
	.st2{fill:none;stroke:#989898;stroke-miterlimit:10;}
	
		.st3{fill-rule:evenodd;clip-rule:evenodd;fill:#FF7F00;stroke:#000000;stroke-width:0.5;stroke-linecap:round;stroke-linejoin:round;stroke-miterlimit:10;}
	.st4{fill-rule:evenodd;clip-rule:evenodd;}
	.st5{fill:none;stroke:#FF7F00;stroke-width:0.5;stroke-miterlimit:10;}
	.st6{fill:none;stroke:#211915;stroke-width:0.5;stroke-miterlimit:10;}
	
		.st7{fill-rule:evenodd;clip-rule:evenodd;fill:#FF7F00;stroke:#000000;stroke-linecap:round;stroke-linejoin:round;stroke-miterlimit:10;}
	.st8{fill-rule:evenodd;clip-rule:evenodd;stroke:#000000;stroke-width:0.25;stroke-linecap:round;stroke-miterlimit:10;}
	.st9{fill:#211915;}
	.st10{fill:#FF7F00;}
	.st11{fill:#D45000;}
	.st12{fill:#D6803F;}
	.st13{clip-path:url(#SVGID_00000032630308613291767920000003843116074718380938_);}
	.st14{fill:#FFFFFF;stroke:#000000;stroke-width:0.5;stroke-linecap:round;stroke-linejoin:round;stroke-miterlimit:10;}
	.st15{fill:#FFFFFF;stroke:#000000;stroke-width:0.25;stroke-linecap:round;stroke-linejoin:round;stroke-miterlimit:10;}
	.st16{clip-path:url(#SVGID_00000036958096954493251690000000242389974329943201_);}
	.st17{fill:#00B852;}
	.st18{clip-path:url(#SVGID_00000176752581233086313730000011981088069078127505_);}
	.st19{fill:#C63682;}
	.st20{clip-path:url(#SVGID_00000081618554110592266640000011894604314472073396_);}
	.st21{fill:#83D354;}
	.st22{clip-path:url(#SVGID_00000112605771580077395180000002750311421748982683_);}
	.st23{clip-path:url(#SVGID_00000096747109191476693280000000341958396129184678_);}
	.st24{fill:#FF9312;}
	.st25{clip-path:url(#SVGID_00000105403201177833565990000016829983416130821819_);}
	.st26{fill:#CC773E;}
	.st27{clip-path:url(#SVGID_00000051369973570802764320000017658841666593163693_);}
	.st28{stroke:#000000;stroke-miterlimit:10;}
	.st29{stroke:#000000;stroke-linecap:round;stroke-linejoin:round;stroke-miterlimit:10;}
	.st30{fill:none;stroke:#000000;stroke-width:0.5;stroke-linecap:round;stroke-linejoin:round;stroke-miterlimit:10;}
	
		.st31{fill-rule:evenodd;clip-rule:evenodd;fill:#FF7F00;stroke:#000000;stroke-width:0.25;stroke-linecap:round;stroke-linejoin:round;stroke-miterlimit:10;}
	.st32{fill:none;stroke:#AFAEAE;stroke-miterlimit:10;}
	.st33{clip-path:url(#SVGID_00000007402880052274445860000003032085069250189697_);}
	.st34{clip-path:url(#SVGID_00000074429748332559477860000013391277178171230346_);}
	.st35{clip-path:url(#SVGID_00000102512786733204847340000006922518709667282841_);}
	.st36{clip-path:url(#SVGID_00000124870113199443568450000009934164239698400408_);}
	.st37{stroke:#83D354;stroke-width:0.75;stroke-linecap:round;stroke-linejoin:round;stroke-miterlimit:10;}
	.st38{clip-path:url(#SVGID_00000156566276073397477580000012241614916965304459_);}
	.st39{clip-path:url(#SVGID_00000095303668157447891230000006982044472476673165_);}
	.st40{clip-path:url(#SVGID_00000129894336938408574000000015761441689004607645_);}
	.st41{clip-path:url(#SVGID_00000103947835275209481750000000995065706601153466_);}
	.st42{stroke:#000000;stroke-linejoin:round;}
	.st43{stroke:#000000;stroke-width:0.75;stroke-linecap:round;stroke-linejoin:round;stroke-miterlimit:10;}
	.st44{stroke:#000000;stroke-linejoin:round;stroke-miterlimit:10;}
	
		.st45{fill-rule:evenodd;clip-rule:evenodd;fill:none;stroke:#83D354;stroke-width:12;stroke-linecap:round;stroke-linejoin:round;stroke-miterlimit:10;}
</style>
<g>
	<g>
		<g>
			<g>
				<path class="st7" d="M328.39,204.76c-3.4-1.37-5.91-1.13-9.19-2.13c-10.59-3.22-9.59-2.22-8.94-6.6
					c0.7-4.66,3.61-16.26,2.96-22.31c-1.42-1.39-7.53-4.24-9.57-3.02c-1.73,1.04-3.65,10.34-4.04,11.84
					c-2.88,11.3-7.01,32.13-10.04,43.88c-8.06-1.26-14.86-2.5-15.33-2.62c-7.16-1.8-1.22-15.59,1.21-26.31
					c1.62-7.1,6.97-30.27,10.17-44.73c2.94-13.13,5.6-24.94,9.1-35.25c1.23-3.6,2.28-7.29,3.88-10.72
					c2.29-4.88,5.48-9.16,11.31-10.13c2.09-0.35,4.32,0.03,6.49,0.24c0.99,0.09,1.94,0.58,2.92,0.84
					c22.59,1.61,19.02,15.95,17.54,33.14c-0.47,5.53-1.18,13.48-1.57,20.15c-0.5,8.33-1.77,17.03-4.82,53.26
					C330.16,205.79,329.59,204.94,328.39,204.76z M320.71,118.99c-0.99-0.16-4.8-0.91-5.8-1.06c-3.42,13.03-6.18,26.39-9.58,39.3
					c11.49,2.34,11.86,7.25,12.39-4.75c0.39-9.02,1.22-15.33,1.81-22.39C319.89,125.84,320.53,123.26,320.71,118.99z"/>
				<path class="st7" d="M187.55,231.1c-4.89-1.49-7.75-3.88-13.26-5.56c-1.88,2.08-7.51,6.87-10.24,9.71
					c-8.62,8.96-25.38,9.99-30.35-6.51c-2.07-6.08-1.59-16.25-0.27-22.16c4.7-21.05,8.01-38.79,14-59.53
					c0.94-3.24,2.21-7.28,6.78-8.51c4.28-1.15,10.33-0.47,10.11,3.83c-0.27,5.35-1.84,12.89-3.67,23.35
					c-3.21,18.29-6.9,36.5-10.37,54.75c-0.59,3.11-1.04,6.26-1.64,9.88c7.57-0.45,9.45-5.76,11.15-10.33
					c4.73-12.71,8.8-25.67,13.29-38.46c6.37-18.16,12.76-36.32,19.51-54.35c0.88-2.37,3.76-5.28,6.02-5.58
					c4.42-0.57,9.24,3.32,9.41,7.88c0.27,7.52-0.85,14.39-1.86,21.77c-3.61,26.32-10.95,48.32-17.92,77.41
					C187.92,229.97,187.51,231.22,187.55,231.1z"/>
				<path class="st7" d="M269.45,94.65c10.5,0.73,16.88,0.99,15.8,10.77c-1.62,14.7-11.39,59-12.89,65.73
					c-1.25,5.6-3.8,14.33-4.7,19.29c-2.05,11.3-3.94,20.42-6.47,31.64c-0.75,3.3-2.18,9.53-3.08,12.82
					c-5.71-1.62-10.21-2.27-15.09-4.47c-2.63-1.18-3.58,1.19-4.44-1.55c-2.44-7.71-3.32-21.65-5.18-29.54
					c-0.45-1.93-4.86-12.8-5.31-14.91c0.65,7.06-7.8,33.41-13.12,61.93c-6.13-4.39-12.07-8.65-17.03-12.21
					c-2.64-2.78-1.94-4-1.39-6.19c4.49-17.91,8.16-36.03,12.17-54.06c2.56-11.52,5.02-23.06,7.97-34.48
					c1.87-7.24,3.54-15.2,14.25-14.06c1.06,0.11,8.27,0.71,8.38,11.41c0.7,5.54,8.37,49.61,9.52,51.78
					c1.5-2.92,3.88-19.22,4.33-21.27c4.8-22,9.43-44.03,14.17-66.04C267.79,99.11,268.67,97.06,269.45,94.65z"/>
				<path class="st7" d="M372.89,314.57c-3.3-1.15-4.84-1.39-8.01-2.18c-10.23-2.57-9.17-2.95-8.75-7.14
					c0.45-4.47,1.78-13.79,0.89-19.51c-1.42-1.25-7.37-3.69-9.25-2.43c-1.6,1.07-3,10.01-3.3,11.45
					c-2.21,10.89-2.58,20.72-4.92,32.04c-4.08-0.43-10.65-0.98-14.71-1.78c-6.9-1.39-4.48-4.6-2.66-14.92
					c1.2-6.83,5.21-29.13,7.58-43.04c2.19-12.63,4.16-24,7.02-33.98c0.99-3.48,1.82-7.04,3.19-10.39
					c1.95-4.76,4.79-8.97,10.29-10.17c1.98-0.43,4.12-0.17,6.19-0.09c0.94,0.04,1.88,0.47,2.82,0.67
					c21.58,0.49,18.85,14.31,18.25,30.74c-0.2,5.28-0.5,12.87-0.56,19.26c-0.08,7.96-0.88,16.28-2.09,50.91
					C374.63,315.48,374.05,314.7,372.89,314.57z M361.58,233.29c-0.95-0.1-4.61-0.65-5.57-0.74c-2.65,12.57-4.66,25.4-7.29,37.85
					c11.05,1.69,11.63,6.35,11.57-5.09c-0.05-8.6,0.44-14.65,0.68-21.4C361.12,239.85,361.61,237.36,361.58,233.29z"/>
				<path class="st7" d="M308.95,215.36c10.03,0.16,16.11,0.09,15.59,9.44c-0.79,14.08-6.66,49.98-7.74,56.47
					c-0.9,5.39-2.88,13.82-3.49,18.59c-1.37,10.86-3.11,19.57-4.54,30.43c-0.45,3.44-0.76,7.79-1.57,10.99
					c-5.52-1.25-9.97-1.85-15.95-3.38c-2.67-0.68-3.34,1.31-4.3-1.25c-2.71-7.22-3.61-19.18-5.78-26.6
					c-0.53-1.81-5.28-11.93-5.81-13.91c0.98,6.68-5.71,32.18-9.32,59.59c-6.06-3.87-11.93-7.63-16.84-10.75
					c-2.66-2.51-2.05-3.72-1.63-5.83c3.36-17.28,5.93-34.7,8.81-52.06c1.85-11.09,3.6-22.2,5.82-33.21
					c1.41-6.99,2.6-14.65,12.84-14.11c1.01,0.06,7.91,0.26,8.56,10.44c0.95,5.23,10.5,46.78,11.7,48.79
					c1.28-2.85,2.71-18.49,3.04-20.46c3.45-21.17,5.54-35.63,8.93-56.82C307.59,219.69,308.32,217.69,308.95,215.36z"/>
				<path class="st7" d="M242.15,247.09c1.86,3.04,3.9,5.75,5.7,8.88c1.92,3.33-0.15,5.17-3.2,5.98c-4.71,1.22-0.96,0.17-6.73,1.96
					c-3.91,0.99-0.28,0.12-3.4,0.88c-20.18,5.06-16.38,4.08-16.86,15.22c-0.13,2.75-0.46,5.5-0.79,9.31
					c1.67,0.08,11.54-1.29,13.39-1.74c9.03-2.2,6.6,0.34,7.25,5.42c0.35,6.63-0.74,6.15-4.94,7.13c-3.45,0.8-6.44,0.81-9.83,1.67
					c-4.13,1.05-8.42-1.64-8.92,5.53c-0.74,10.45-3.41,19.68-3.54,31.37c10.53-1.86,19.88-3.51,29.03-5.13
					c3,5.86-0.62,13.7-6.82,15.64c-8.79,2.76-20.13,6.39-28.97,9.03c-0.7,0.21-1.54,0.28-2.26,0.13
					c-7.27-1.51-13.21-8.88-12.04-16.23c2.1-13.15,6.2-28.76,7.83-45c0.78-7.78,2.07-16.56,3.62-24.23
					c0.29-1.43-0.47-3.71-1.55-4.67c-6.03-5.3-4.09-12.78,5.77-15.74c9.86-2.96,12.5-2.24,22.34-5.24c2.94-0.9,1.63-0.79,4.57-1.68
					c1.13-0.35,3.04-1.27,4.02-1.52C241.04,242.75,240.19,243.86,242.15,247.09z"/>
				<path class="st7" d="M173.53,354.03c-12.45-4.11-16.92-10.07-15.28-22.83c2.98-23.25,6.57-46.42,9.94-69.62
					c0.81-5.55,1.6-11.11,2.71-16.61c0.62-3.04,0.01-8.33,4.76-7.36c3.9,0.8,9,3.75,10.34,7.05c2.29,5.59,3.48,12.42,2.59,18.35
					c-4.13,27.7-9.13,55.27-13.8,82.9C174.35,348.63,173.95,351.34,173.53,354.03z"/>
				<path class="st7" d="M104.26,280.27c-5.53,0.52-11.97,2.2-15.37-9.1c-0.6-1.98,2.1-16.65,2.42-18.97
					c1.39-9.97,10.16-57.97,12.08-66.19c1.42-6.1,7.14-37.8,10.34-48.85c0.58-2.46,4.49-3.1,4.72-2.86c4.33-0.6,4.85-0.4,6.3,0.26
					c11.97,5.42,7.57,14.74,6.37,25.37c-2.91,26.08-14.73,88.44-15.69,94.84c-0.65,4.41,7.28,0.22,8.5-0.16
					c11.26-3.58,9.89-3.28,21.28-6.44c4-1.11,8.19-2.67,13.39-3.81c-2.32,6.11-3.5,13.61-6.37,18.12c-2.07,3.25-5.96,6.16-9.66,7.43
					c-12.13,4.18-11.89,3.76-24.21,7.44C117.7,277.76,99.68,280.63,104.26,280.27z"/>
				<path class="st7" d="M129.15,389.59c-4.37,0.41-9.47,1.73-12.15-7.2c-0.47-1.57,1.66-13.17,1.92-15
					c1.1-7.89,8.04-45.86,9.56-52.36c1.13-4.83,5.65-29.89,8.18-38.64c0.46-1.95,3.55-2.45,3.73-2.26c3.43-0.47,3.84-0.31,4.98,0.21
					c9.47,4.29,5.98,11.66,5.04,20.07c-2.31,20.63-11.67,69.97-12.42,75.03c-0.52,3.48,5.76,0.17,6.71-0.13
					c8.91-2.83,7.83-2.61,16.83-5.1c3.17-0.87,6.48-2.11,10.6-3.01c-1.83,4.83-2.77,10.76-5.04,14.33
					c-1.64,2.57-4.71,4.87-7.64,5.87c-9.6,3.31-9.41,2.98-19.15,5.88C139.78,387.61,125.53,389.87,129.15,389.59z"/>
			</g>
			<g>
				<path class="st4" d="M324.24,203.78c-3.41-1.38-5.91-1.14-9.19-2.13c-10.6-3.22-9.6-2.23-8.94-6.6
					c0.7-4.65,3.61-16.26,2.96-22.31c-1.42-1.38-7.53-4.24-9.58-3.02c-1.73,1.05-3.65,10.34-4.03,11.85
					c-2.88,11.3-7.01,32.13-10.04,43.87c-4.26-0.67-12.29-1.96-15.33-2.62c-7.21-1.56-1.22-15.59,1.22-26.32
					c1.62-7.1,6.97-30.27,10.16-44.73c2.95-13.13,5.6-24.94,9.11-35.26c1.22-3.6,2.27-7.29,3.87-10.72
					c2.29-4.88,5.48-9.16,11.3-10.14c2.09-0.35,4.33,0.03,6.49,0.23c0.99,0.09,1.94,0.59,2.92,0.84
					c22.59,1.62,19.02,15.96,17.54,33.15c-0.47,5.53-1.18,13.48-1.57,20.16c-0.5,8.33-1.77,17.02-4.82,53.25
					C326.01,204.81,325.44,203.97,324.24,203.78z M316.56,118.01c-0.99-0.16-4.8-0.91-5.8-1.06c-3.42,13.03-6.19,26.38-9.58,39.3
					c11.49,2.34,11.86,7.25,12.38-4.74c0.39-9.02,1.22-15.33,1.82-22.39C315.73,124.85,316.38,122.28,316.56,118.01z"/>
				<path class="st4" d="M183.39,230.12c-4.89-1.49-7.75-3.88-13.25-5.56c-1.88,2.08-7.51,6.87-10.25,9.7
					c-8.62,8.96-25.38,9.99-30.35-6.5c-2.07-6.07-1.59-16.25-0.27-22.16c4.7-21.05,8.01-38.79,14-59.54
					c0.94-3.24,2.21-7.27,6.78-8.5c4.28-1.15,10.33-0.48,10.11,3.82c-0.28,5.35-1.84,12.89-3.68,23.35
					c-3.21,18.3-6.9,36.51-10.37,54.75c-0.59,3.12-1.04,6.26-1.64,9.88c7.57-0.46,9.44-5.76,11.15-10.33
					c4.74-12.71,8.8-25.67,13.29-38.47c6.37-18.16,12.76-36.32,19.51-54.35c0.88-2.37,3.75-5.28,6.02-5.58
					c4.42-0.58,9.25,3.33,9.41,7.88c0.27,7.52-0.85,14.39-1.86,21.77c-3.61,26.32-10.95,48.32-17.93,77.41
					C183.77,228.99,183.36,230.25,183.39,230.12z"/>
				<path class="st4" d="M266.49,93.68c10.5,0.73,16.88,0.98,15.8,10.76c-1.62,14.71-11.39,59-12.89,65.74
					c-1.25,5.6-3.8,14.33-4.7,19.28c-2.06,11.31-3.95,20.42-6.47,31.64c-0.75,3.3-1.24,8.12-2.28,11.43
					c-5.71-1.62-8.63-2.08-13.51-4.28c-2.63-1.18-3.58,1.19-4.44-1.54c-2.44-7.72-5.71-20.45-7.57-28.35
					c-0.45-1.93-4.86-12.8-5.31-14.9c0.65,7.05-7.8,33.41-13.12,61.92c-6.13-4.39-12.07-8.65-17.03-12.2
					c-2.64-2.78-1.94-4-1.39-6.19c4.49-17.92,8.16-36.03,12.17-54.06c2.55-11.52,5.02-23.06,7.97-34.48
					c1.87-7.24,3.54-15.2,14.24-14.07c1.06,0.11,8.28,0.7,8.39,11.42c0.69,5.54,8.37,49.61,9.51,51.78
					c1.5-2.92,3.88-19.23,4.33-21.27c4.8-21.99,9.43-44.03,14.17-66.04C264.83,98.13,265.7,96.08,266.49,93.68z"/>
				<path class="st4" d="M368.74,313.59c-3.3-1.14-4.85-1.38-8.01-2.18c-10.23-2.57-9.17-2.95-8.76-7.14
					c0.45-4.47,1.79-13.78,0.89-19.51c-1.42-1.25-7.37-3.69-9.25-2.43c-1.59,1.07-3,10.01-3.29,11.46
					c-2.21,10.89-2.58,20.72-4.92,32.04c-4.08-0.44-10.66-0.98-14.71-1.78c-6.89-1.38-4.48-4.59-2.65-14.91
					c1.21-6.84,5.21-29.14,7.59-43.05c2.19-12.63,4.16-23.99,7.02-33.98c0.99-3.48,1.81-7.04,3.18-10.38
					c1.95-4.76,4.79-8.98,10.29-10.17c1.98-0.43,4.13-0.17,6.19-0.08c0.95,0.04,1.87,0.46,2.81,0.67
					c21.58,0.49,18.85,14.3,18.25,30.73c-0.19,5.28-0.49,12.87-0.56,19.26c-0.08,7.95-0.88,16.28-2.09,50.9
					C370.48,314.5,369.9,313.71,368.74,313.59z M357.43,232.31c-0.95-0.1-4.61-0.64-5.56-0.74c-2.65,12.56-4.66,25.4-7.29,37.85
					c11.06,1.69,11.63,6.35,11.57-5.1c-0.05-8.6,0.44-14.65,0.68-21.39C356.97,238.87,357.46,236.39,357.43,232.31z"/>
				<path class="st4" d="M305.16,213.12c10.03,0.15,16.12,0.08,15.59,9.44c-0.79,14.07-6.65,49.99-7.73,56.47
					c-0.91,5.39-2.88,13.83-3.49,18.59c-1.38,10.86-2.71,19.63-4.54,30.43c-0.54,3.18-0.76,7.79-1.58,11
					c-5.52-1.25-8.31-1.54-13.08-3.39c-2.56-0.99-3.34,1.31-4.3-1.24c-2.72-7.22-6.48-19.18-8.65-26.59
					c-0.53-1.82-5.28-11.93-5.81-13.91c0.98,6.67-5.71,32.18-9.32,59.59c-6.06-3.87-11.93-7.63-16.83-10.75
					c-2.65-2.52-2.04-3.71-1.63-5.83c3.36-17.27,5.93-34.7,8.81-52.06c1.85-11.09,3.6-22.2,5.82-33.21
					c1.41-6.98,2.59-14.65,12.83-14.11c1.02,0.05,7.91,0.25,8.56,10.44c0.95,5.23,10.5,46.78,11.71,48.79
					c1.28-2.85,2.71-18.49,3.03-20.46c3.45-21.17,5.54-35.63,8.93-56.82C303.81,217.44,304.54,215.45,305.16,213.12z"/>
				<path class="st4" d="M238,247.3c1.86,3.05,3.9,5.75,5.7,8.88c1.92,3.33-0.16,5.17-3.2,5.98c-4.71,1.23-0.96,0.17-6.73,1.96
					c-3.91,0.99-0.28,0.12-3.4,0.88c-20.18,5.06-16.37,4.08-16.86,15.22c-0.12,2.76-0.46,5.5-0.79,9.32
					c1.68,0.08,11.54-1.29,13.39-1.74c9.03-2.2,6.6,0.35,7.25,5.41c0.35,6.64-0.74,6.16-4.94,7.13c-3.45,0.81-6.44,0.81-9.83,1.67
					c-4.12,1.05-8.42-1.64-8.92,5.53c-0.74,10.46-3.41,19.68-3.54,31.37c10.53-1.86,19.88-3.51,29.03-5.13
					c3,5.86-0.62,13.69-6.81,15.64c-8.8,2.75-17.63,5.37-26.47,8c-0.71,0.21-1.55,0.28-2.26,0.13c-7.27-1.51-13.22-8.88-12.04-16.22
					c2.1-13.15,3.7-27.74,5.33-43.98c0.78-7.78,2.07-16.56,3.62-24.23c0.29-1.42-0.47-3.71-1.55-4.67
					c-6.03-5.3-4.09-12.78,5.77-15.73c9.86-2.97,12.49-2.25,22.33-5.25c2.95-0.89,1.64-0.79,4.58-1.69
					c1.13-0.34,3.04-1.27,4.02-1.52C236.89,242.96,236.04,244.08,238,247.3z"/>
				<path class="st4" d="M169.38,353.06c-12.45-4.11-16.92-10.07-15.29-22.83c2.98-23.25,6.57-46.42,9.94-69.62
					c0.81-5.55,1.6-11.11,2.71-16.61c0.62-3.04,0.01-8.33,4.76-7.36c3.9,0.79,9,3.75,10.34,7.05c2.29,5.58,3.48,12.42,2.59,18.35
					c-4.13,27.71-9.13,55.28-13.8,82.9C170.2,347.65,169.8,350.37,169.38,353.06z"/>
				<path class="st4" d="M100.11,279.29c-5.53,0.52-11.97,2.19-15.36-9.1c-0.59-1.98,2.1-16.65,2.42-18.96
					c1.39-9.97,10.16-57.98,12.08-66.2c1.42-6.1,7.14-37.79,10.34-48.84c0.58-2.46,4.49-3.11,4.72-2.86c4.33-0.6,4.85-0.4,6.29,0.25
					c11.98,5.43,7.57,14.75,6.38,25.38c-2.92,26.08-14.73,88.44-15.69,94.84c-0.66,4.41,7.28,0.22,8.49-0.16
					c11.26-3.58,9.89-3.29,21.28-6.45c4-1.1,8.2-2.66,13.4-3.8c-2.32,6.11-3.5,13.61-6.37,18.11c-2.07,3.24-5.96,6.16-9.66,7.43
					c-12.13,4.18-11.9,3.76-24.21,7.44C113.55,276.78,95.53,279.65,100.11,279.29z"/>
				<path class="st4" d="M124.93,390.18c-4.37,0.41-9.47,1.74-12.16-7.21c-0.47-1.56,1.67-13.17,1.92-15
					c1.1-7.88,8.04-45.86,9.56-52.36c1.13-4.82,5.65-29.89,8.18-38.63c0.46-1.95,3.55-2.45,3.74-2.27c3.42-0.47,3.83-0.31,4.98,0.21
					c9.47,4.3,5.98,11.66,5.04,20.07c-2.31,20.64-11.67,69.96-12.42,75.03c-0.52,3.48,5.76,0.18,6.72-0.13
					c8.91-2.83,7.83-2.6,16.84-5.09c3.16-0.87,6.48-2.11,10.6-3.01c-1.83,4.84-2.77,10.77-5.04,14.33
					c-1.64,2.57-4.71,4.87-7.65,5.87c-9.59,3.31-9.4,2.98-19.15,5.88C135.57,388.19,121.31,390.46,124.93,390.18z"/>
			</g>
			<g>
				<path class="st4" d="M93.93,309.89c0.71,0.22,0.7,0.96,0.96,1.23c0.02,0.12-0.04,0,0-0.07c0.1-0.18,0.22-0.04,0.28,0.04
					c0.39,0.47,0.89,0.8,1.44,1.08c0.06-0.26-0.08-0.62,0.37-0.64c0.37-0.01,0.57,0.19,0.71,0.51c0.39,0.88,0.95,1.15,1.83,0.84
					c0.39-0.14,0.48-0.35,0.22-0.79c-0.57-0.96-1.11-2-1.73-2.87c-0.37-0.52-0.5-1.57-1.55-1.69c-0.34-0.04,0.23-0.59,0.12-0.94
					c-0.84,0.24-1.19,1-0.84,1.97c0.12,0.33,0.22,0.63,0.18,0.99c-0.07,0.65,0.69,0.78,0.85,1.31c0.08,0.25,0.42,0.5,0.07,0.73
					c-0.25,0.16-0.56,0.04-0.75-0.2c-0.52-0.66-1.17-1.17-1.17-2.21c0.01-1.36-0.23-2.72,0.18-4.05c0.19-0.59-0.17-0.97-0.4-1.39
					c-1.39-2.66-2.83-5.3-3.6-8.24c-0.45-1.69-0.6-3.42-0.76-5.15c-0.02-0.22,0.01-0.45,0.04-0.67c0.04-0.3,0.18-0.55,0.49-0.63
					c0.29-0.06,0.45,0.14,0.64,0.33c1.17,1.15,1.81,2.59,2.42,4.07c0.19,0.45,0.18,1,0.64,1.32c-0.3,0.4,0.89,0.94-0.11,1.29
					c-0.01,0.01,0.13,0.44,0.21,0.67c0.25,0.75,0.34,1.71,0.94,2.13c0.87,0.61,1.22,1.45,1.68,2.29c0.19,0.35,0.41,0.08,0.6-0.09
					c0.54-0.46,1.16-0.76,1.84-0.94c0.32-0.09,0.69-0.31,0.96,0.03c0.25,0.31-0.04,0.59-0.16,0.88c-0.36,0.89-0.92,1.69-1.48,2.46
					c-0.38,0.53-0.32,0.94-0.08,1.47c0.35,0.79,0.98,1.45,1.18,2.4c-0.41-0.18-0.43-0.64-0.89-0.71c0.29,0.88,0.65,1.67,1.29,2.32
					c0.46-0.35-0.2-0.63,0.06-0.97c0.76,0.97,1.5,1.92,2.24,2.87c-0.28,0.35-0.32-0.08-0.49-0.03c0.02,0.23,0.04,0.47,0.08,0.7
					c0.04,0.28,0.09,0.55-0.1,0.8c0,0-0.03-0.01-0.04-0.02c0.32-0.13,0.57-0.06,0.85,0.18c2.05,1.79,3.67,3.95,5.41,6.18
					c0-0.53-0.25-0.84-0.41-1.18c-0.97-2.12-1.1-4.32-0.67-6.59c0.24-1.22,1-2.08,1.87-2.89c0.27-0.24,0.6-0.43,0.95-0.26
					c0.4,0.19,0.27,0.6,0.22,0.93c-0.06,0.37-0.2,0.73-0.3,1.1c-0.06-0.02-0.12-0.03-0.18-0.04c-1.25,0.94-2.04,3.05-1.73,4.54
					c0.13,0.64,0.02,1.3,0.3,1.94c0.8,1.85,1.59,3.68,3.2,5c0.19,0.16,0.32,0.39,0.46,0.59c0.14,0.19,0.42,0.38,0.13,0.64
					c-0.2,0.18-0.39,0.25-0.73,0.14c-0.98-0.32-1.97-0.68-3.03-0.54c-0.11,0.02-0.41-0.08-0.41,0.24c0,0.22,0.1,0.43,0.29,0.41
					c0.91-0.06,1.52,0.6,2.29,0.86c0,0.09,0.01,0.18,0.02,0.26c-1.67,0.12-3.34,0.14-5,0.44c-0.78,0.13-1.32,0.46-1.51,1.29
					c-0.12,0.5-0.32,1.21-0.99,1.04c-0.71-0.18-0.49-0.92-0.51-1.47c-0.01-0.18,0.03-0.38,0.2-0.51c0.49-0.39-0.37-0.63-0.12-0.99
					c-0.34-0.03-0.65-0.03-0.91,0.26c-0.63,0.69-1.34,1.31-2.15,1.79h0.02c-0.05,0.04-0.11,0.07-0.16,0.11
					c-0.01,0.04-0.02,0.09-0.02,0.14c0.19,0.86-0.71,1.31-0.87,2.27c0.62-0.74,1.12-1.35,1.61-1.95c0.07,0.05,0.14,0.09,0.2,0.14
					c-1.15,1.18-1.46,2.87-2.59,4.05c-0.32,0.33-0.71,0.93-1.25,0.58c-0.47-0.3-0.17-0.89-0.03-1.32c1.06-3.27,3.31-5.47,6.35-6.93
					c0.75-0.36,1.67-1.13,2.33-2.12c-1.04,0.18-2.01,0.22-2.98,0.46c-0.64,0.16-1.3,0.32-2.01-0.06c-0.55-0.29-1.09,0.11-1.67,0.38
					c-1.94,0.89-3.57,2.28-5.44,3.24c-0.45,0.22-0.75,0.69-1.3,0.73c-0.28,0.02-0.59,0.16-0.77-0.16c-0.15-0.25,0.02-0.48,0.15-0.7
					c1.06-1.73,2.6-2.91,4.34-3.88c0.19-0.11,0.72,0.04,0.55-0.41c-0.12-0.32-0.38,0.08-0.58,0.09c-0.21,0.02-0.42-0.15-0.63,0.02
					c-0.06-0.02-0.12-0.03-0.18-0.04c-1.48,0.6-2.75,1.51-3.8,2.8c-0.07-0.27,0.08-0.31,0.16-0.31c0.18,0.01,0.26,0.11,0.18,0.32
					c-0.29,0.75-0.93,1.18-1.54,1.59c-0.36,0.25-0.51-0.11-0.47-0.43c0.05-0.41,0.3-0.75,0.56-1.08c1.55-1.98,3.58-3.27,5.9-4.16
					c0.28-0.11,0.64-0.08,0.9-0.55c-1.41-0.23-2.56-1.03-4.14-0.72c-1.15,0.23-2.45-0.08-3.68,0.14c-1.09,0.18-2.34,0.06-2.98,1.29
					c-0.9-0.04-1.55,0.57-2.32,0.88c-1.28,0.49-2.58,0.96-3.81,1.54c-0.74,0.35-1.48,0.69-2.25,0.93c-0.32,0.11-0.72,0.33-0.95-0.06
					c-0.25-0.44,0.07-0.77,0.41-1.04c1.18-0.96,2.44-1.8,3.87-2.35c2.64-1.01,5.35-1.71,8.17-2.01c0.2-0.02,0.41-0.08,0.61-0.12
					c-0.06-0.26-0.22-0.28-0.37-0.29c-0.12-0.01-0.24,0.03-0.37-0.05c0.39-0.28,0.75-0.56,1.42-0.43c-0.58-0.38-1.14-0.39-1.45-0.19
					c-0.95,0.61-1.92,0.42-2.89,0.24c-2.92-0.56-5.83-1.22-8.69-2.02c-0.52-0.14-1.03-0.34-1.5-0.58c-0.66-0.34-1.05-0.81-0.55-1.6
					c0.38-0.59-0.16-0.55-0.46-0.54c-1.08,0.03-2.17,0.09-3.25,0.16c-0.53,0.03-1.07,0.04-1.28-0.53c-0.21-0.57,0.29-0.86,0.7-1.09
					c2.59-1.48,5.35-1.52,8.19-0.96c0.04,0.01,0.07,0.09,0.14,0.2c-1.11,0.57-2.16,1.24-2.84,2.24c1.66,0.38,3.25-0.62,4.93-0.25
					c0,0.08,0,0.15,0,0.22c-0.49,0.24-1.17-0.23-1.57,0.43c1.53,0.38,3.09,0.46,4.85,0.74c-0.78-0.93-1.91-0.45-2.5-1.21
					c0-0.07,0-0.14,0-0.21c1.14-0.02,2.29-0.02,3.43-0.03c0.12-0.02,0.24-0.05,0.35-0.06c-0.05-0.04-0.1-0.09-0.15-0.09
					c-0.11,0-0.25,0-0.19,0.18c-0.93-0.5-1.98-0.48-2.98-0.73c-0.34-0.09-0.76,0.11-1.09-0.3c0.62-0.44,1.37-0.05,2.03-0.35
					c-0.67-0.74-1.78-0.48-2.64-1.24c0.85-0.11,1.47,0.02,2.09,0.09c1.38,0.17,2.77,0.35,4.14,0.55c0.37,0.05,0.75,0.09,0.94-0.24
					c0.18-0.33-0.2-0.52-0.39-0.74l0,0.03c0.28-0.31,0.84,0.38,1.05-0.33c0.2-0.68-0.38-0.86-0.64-1.25
					c-0.07-0.1-0.19-0.16-0.27-0.26c-0.63-0.82-1.69-1.2-2.28-1.96c-0.94-1.23-1.61-2.65-2.38-4.01c-0.83-1.44-1.65-2.88-2.47-4.33
					c-0.08,0.05-0.15,0.09-0.23,0.14c1.3,2.37,2.37,4.87,4.1,7.02c-1.08-1.18-2.23-2.27-3.02-3.71c-0.09,0.26-0.09,0.49,0.02,0.73
					c0.49,1.11,1.2,2.05,2.06,2.92c1.12,1.14,2.61,1.93,3.43,3.39c-0.33,0.06-0.54-0.4-0.94-0.22c0.43,0.55,0.82,1.06,1.22,1.57
					c-0.02,0.09-0.03,0.18-0.05,0.28c-1.92-0.13-3.87-0.17-5.77-0.45c-0.99-0.15-1.97-0.36-2.95-0.23
					c-1.33,0.18-2.64,0.54-3.96,0.78c-1.5,0.28-3.02,0.29-4.54,0.29c-0.37,0.01-0.95,0.11-1.01-0.42c-0.05-0.49,0.43-0.74,0.88-0.86
					c1.68-0.45,3.41-0.71,5.15-0.72c3.51-0.01,7.02-0.28,10.65,0.36c-0.45-0.66-1.05-0.71-1.58-0.81c-2.29-0.47-4.6-0.89-6.9-1.34
					c-1.57-0.3-3.01-0.94-4.41-1.69c-0.06-0.02-0.11-0.07-0.16-0.09c-0.55-0.32-0.82-0.81-0.77-1.42c0.06-0.69,0.71-0.42,1.11-0.53
					c-0.02-0.11-0.01-0.21-0.04-0.23c-2.27-1.37-4.24-3.19-6.69-4.27c-1.2-0.54-2.04-1.55-3.1-2.27c-0.24-0.17-0.49-0.57-0.16-0.92
					c0.28-0.3,0.68-0.43,1-0.09c0.38,0.41,0.81,0.08,1.21,0.16c1.52,0.27,2.82,1.08,4.25,1.6c-0.16-0.89-0.17-0.88-0.78-1.37
					c-0.57-0.46-1.14-0.91-1.66-1.42c-0.29-0.3-0.75-0.67-0.43-1.13c0.33-0.48,0.82-0.17,1.2,0.02c1.37,0.71,2.74,1.45,4,2.35
					c0.09,0.07,0.18,0.14,0.35,0.12c-0.53-0.68-1.06-1.36-1.59-2.05c-0.15-0.19-0.32-0.38-0.47-0.59c-0.31-0.44-0.75-0.99-0.3-1.43
					c0.41-0.4,0.85,0.16,1.22,0.41c1.1,0.74,1.83,1.89,2.86,2.72c0.13,0.11,0.2,0.37,0.44,0.24c0.94-0.48,1.19,0.36,1.36,0.86
					c0.38,1.19,1.35,1.91,2.02,2.87c0.1,0.14,0.22,0.34,0.45,0.16c0.22-0.16,0.12-0.33,0-0.48c-0.79-0.96-0.75-2.17-1.03-3.28
					c0.8-0.26,0.88,0.49,1.25,0.88c0.13-0.43-0.44-0.65-0.14-1.02c0.36-0.02,0.25,0.49,0.58,0.52c-0.14,0.1-0.07,0.19,0.01,0.27
					c0.02,0.02,0.09-0.01,0.14-0.01c-0.06-0.09-0.12-0.18-0.18-0.26c0.15,0.06,0.29,0.12,0.45,0.19c0.09-0.26-0.12-0.42-0.23-0.56
					c-1.05-1.24-0.83-2.73-0.87-4.17c-0.08-2.45,0.16-4.87,0.77-7.24c0.11-0.46,0.21-1.24,0.72-1.13c0.49,0.11,0.04,0.77-0.03,1.16
					c-0.22,1.43-0.25,2.86-0.31,4.3c0,0.09-0.01,0.19-0.05,0.26c-0.98,1.58-0.28,3.07,0.17,4.61c0.23,0.78,0.2,1.63,0.24,2.46
					c0.02,0.52,0.14,0.99,0.48,1.39c0.05,0.07,0.11,0.14,0.16,0.2c0.03-0.06,0.05-0.13,0.07-0.2c0.62-1.19,1.46-1.31,2.35-0.31
					c0.5,0.57,0.94,1.19,1.32,1.69c0.1,0.46-0.88-0.21-0.37,0.56c0.46,0.68,0.62,1.56,1.42,2.27c0.01-0.97-0.64-1.47-0.83-2.15
					c0.57,1.08,1.6,1.85,1.77,3.25c0.06,0.48,0.7,1.05,0.83,1.71c0.02,0.09,0.14,0.21,0.11,0.26c-0.26,0.48,0.17,0.5,0.41,0.67
					c0.25,0.19,0.45,0.42,0.73,0.68c-0.24-0.73-0.99-1.07-0.99-1.84c0.64,0.83,1.09,1.8,2.05,2.67c-0.32-1.24-0.63-2.26-0.84-3.29
					c-0.92-4.57-1.45-9.18-1.76-13.83c-0.08-1.23-0.05-2.48-0.02-3.72c0.01-0.39-0.28-0.71-0.26-0.98c0.04-0.46,0.09-1.19,0.64-1.24
					c0.32-0.02,0.78,0.55,0.99,0.95c0.58,1.11,0.95,2.31,1.19,3.55c0.65,3.18,0.66,6.42,0.92,9.63c0.23,2.81,0.19,5.63,0.61,8.42
					c0.05,0.32-0.01,0.68,0.24,1c0.36-0.36,0.18-0.77,0.27-1.11c0.06-0.28,0.06-0.57,0.15-0.84c0.2-0.61,0.48-1.33,1.26-1.14
					c0.82,0.2,0.71,1.01,0.61,1.65c-0.21,1.22-0.11,2.48-0.15,3.7c-0.02,0.61,0.67,1.26,1.09,1.85c0.31,0.43,0.31,0.74-0.19,0.97
					c-0.28-0.12-0.33-0.4-0.42-0.64C93.38,309.65,93.9,309.61,93.93,309.89z M89.62,297.76c-0.05-0.14-0.11-0.28-0.16-0.42
					c0.05-0.08,0.09-0.16,0.14-0.25c-0.12-0.28,0.09-0.68-0.33-0.85c0.55-0.42,0.23-0.98,0.18-1.46c-0.24-2.23-0.58-4.45-0.66-6.69
					c-0.03-0.68,0.07-1.38-0.29-2.23c-0.08,0.34-0.15,0.49-0.15,0.63c0.01,2.97,0.03,5.94,0.84,8.83c0.08,0.31,0.17,0.6,0.11,0.92
					c0.11,0.28-0.05,0.67,0.32,0.85c-0.18,0.02-0.14,0.15-0.13,0.25c-0.04,0.17,0.04,0.3,0.15,0.42c-0.05,0.09-0.1,0.17-0.15,0.26
					c0.02,0.05,0.03,0.11,0.05,0.16c0.01,0.01,0.04,0.01,0.06,0.02c-0.04-0.06-0.08-0.12-0.13-0.18
					C89.52,297.94,89.57,297.85,89.62,297.76z M104.75,318.97c-0.19,0.1-0.5-0.14-0.6,0.13c-0.1,0.28,0.16,0.39,0.37,0.45
					c0.32,0.09,0.58,0.38,0.98,0.32c-0.56-0.95,0.69-0.4,0.7-0.93c-0.51,0.03-0.79-0.88-1.44-0.29
					C104.76,318.75,104.75,318.86,104.75,318.97z M78.49,299.64c0.7,0.3,1.18,0.86,1.67,1.42c0.33,0.38,0.52,0.97,1.22,0.88
					c0.1-0.01,0.22,0.21,0.33,0.34c-1.57-2.12-4.03-3.37-5.45-5.66c-0.46,0.61,0.39,0.84,0.34,1.38c-0.92-0.81-1.79-1.62-2.72-2.35
					c-0.28-0.22-0.64-0.77-1.01-0.43c-0.46,0.42,0.1,0.78,0.34,1.11c0.25,0.34,0.51,0.66,0.91,1.17c-1.37-0.56-2.54-1-3.69-1.5
					c-1.6-0.69-2.9-0.93-3.7-0.48c1.3,0,2.06,0.81,2.94,1.35c1.65,1.02,3.65,0.71,5.33,1.54c0.11,0.02,0.22,0.04,0.34,0.06
					c0.01-0.21-0.13-0.25-0.3-0.24c-0.82-0.23-0.59-1.28-1.26-1.64c-0.01-0.01,0.01-0.19,0.06-0.23c0.06-0.05,0.2-0.07,0.25-0.04
					c0.22,0.17,0.43,0.37,0.65,0.54c1.24,0.95,2.17,2.35,3.79,2.78c-0.16,0.23-0.01,0.32,0.22,0.41
					C78.65,299.9,78.57,299.77,78.49,299.64z M89.89,309.3c-0.09,0.95,0.32,1.52,0.38,2.27c-0.22-0.18-0.36-0.29-0.56-0.45
					c0.78,1.13,1.21,2.48,2.7,2.81c0.03,0.01,0.05,0.08,0.08,0.13c0,0,0.03-0.01,0.17-0.07C91.88,312.42,91.07,310.9,89.89,309.3z
					 M97.37,317.19c0.39-0.31,0.64-0.5,0.88-0.69c-0.77-0.31-1.3,0.09-1.37,0.71c-0.07,0.61,0.56,0.84,1.12,0.88
					c0.98,0.07,1.94,0.22,2.88,0.48c0.29,0.09,0.64,0.23,1.05-0.06C100.54,317.68,99.08,317.38,97.37,317.19z M90.22,315.51
					c1.36,1.02,2.94,1.35,4.6,1.35C93.44,315.92,92.03,315.07,90.22,315.51z M94.39,312.71c-0.42-1.15-1.32-1.88-2.2-2.62
					c-0.17-0.14-0.39-0.33-0.57-0.15c-0.12,0.11-0.13,0.43-0.06,0.61c0.24,0.64,0.65,1.14,1.32,1.41
					C93.39,312.16,93.98,312.25,94.39,312.71z M101.96,317.01c-0.58-0.34-1.11-0.87-1.89-0.84c-0.16,0.01-0.35,0.01-0.39,0.18
					c-0.05,0.17,0.1,0.28,0.25,0.35c0.56,0.27,1.12,0.54,1.69,0.82c0.18,0.08,0.36,0.13,0.48-0.07
					C102.2,317.29,102.06,317.17,101.96,317.01z M98.9,316.17c0.78-0.22,1.55-0.45,2.16-1.01C100.19,315.2,99.52,315.64,98.9,316.17
					z M78.47,294.29c0.22,0.43,0.33,0.67,0.52,1.05C78.95,294.88,78.95,294.58,78.47,294.29z M73.26,301.17
					c0.04,0.11,0.04,0.21,0.09,0.25c0.08,0.08,0.18,0.18,0.31,0.06c0.12-0.1,0.08-0.22-0.02-0.28
					C73.55,301.15,73.42,301.18,73.26,301.17z M79.85,301.11c-0.05-0.03-0.1-0.06-0.15-0.09c0.01,0.05,0.01,0.12,0.04,0.16
					c0.04,0.05,0.11,0.06,0.17,0.08C79.9,301.22,79.88,301.16,79.85,301.11z M85.02,305.71c0.07,0.15,0.09,0.24,0.14,0.29
					c0.04,0.04,0.13,0.04,0.19,0.05c-0.03-0.08-0.05-0.16-0.09-0.23C85.23,305.77,85.15,305.76,85.02,305.71z M90.03,316.96
					c-0.05-0.02-0.11-0.08-0.15-0.06c-0.08,0.04-0.15,0.11-0.03,0.18c0.05,0.03,0.12,0.03,0.17,0.05
					C90.03,317.07,90.03,317.01,90.03,316.96z M91.06,305.53c0.12-0.06,0.09-0.15,0.04-0.22c-0.02-0.02-0.13-0.02-0.14,0
					c-0.03,0.07-0.04,0.15-0.05,0.23C90.96,305.54,91.01,305.53,91.06,305.53z M84.79,312.68c-0.02-0.01-0.06-0.02-0.08-0.02
					c-0.02,0.02-0.02,0.05-0.02,0.08c0.04,0,0.07,0,0.11,0C84.8,312.72,84.8,312.7,84.79,312.68z M90.94,304.91
					c0,0.03-0.02,0.08-0.01,0.08c0.04,0.03,0.08,0.04,0.13,0.07c0-0.03,0.02-0.08,0.01-0.09C91.03,304.95,90.98,304.93,90.94,304.91
					z"/>
				<path class="st4" d="M104.96,308.21c0.11,1.76-0.35,3.52-0.04,5.32c-1.41-0.99-1.65-1.33-1.57-2.84
					c0.21-4.48,0.85-8.88,2.93-12.95c0.52-1.03,0.71-1.28,1.6-1.72c-1.57,3.23-2.08,6.59-2.61,9.94c-0.1-0.01-0.19-0.02-0.28-0.03
					c-0.03-0.05-0.06-0.1-0.1-0.16c-0.01-0.01-0.07-0.01-0.07-0.01c-0.26,0.57-0.37,1.19-0.51,1.8c-0.14,0.64,0.15,0.74,0.67,0.67
					L104.96,308.21z"/>
				<path class="st4" d="M114.3,324.24c1.16-0.83-0.11-1.17-0.38-1.87c0.69,0.38,1.5,0.34,1.7,1.18c0.08,0.34,0.09,0.78-0.18,0.98
					C115.06,324.8,114.71,324.42,114.3,324.24z"/>
				<path class="st4" d="M81.36,310.26c0.14-0.08,0.25-0.08,0.3,0.06c0.02,0.05-0.05,0.16-0.1,0.22c-0.09,0.08-0.21,0.13-0.3-0.01
					C81.17,310.4,81.28,310.32,81.36,310.26z"/>
				<path class="st4" d="M95.05,320.41c-0.05,0.17-0.18,0.29-0.34,0.23c-0.07-0.02,0.04-0.2,0.15-0.26
					C94.93,320.38,94.99,320.39,95.05,320.41z"/>
				<path class="st4" d="M113.44,324.02c-0.19,0.04-0.41,0.1-0.38-0.23v0.02c0.15,0.04,0.4-0.07,0.39,0.24L113.44,324.02z"/>
				<path class="st4" d="M87.73,308.36c-0.13,0.21-0.27-0.02-0.4,0c0.02-0.09,0.03-0.18,0.05-0.28c0.23-0.03,0.28,0.16,0.35,0.3
					L87.73,308.36z"/>
				<path class="st4" d="M105,307.82c-0.02,0.13-0.03,0.26-0.04,0.39l0.02,0.01c-0.32-0.07-0.23-0.25-0.11-0.43
					C104.92,307.8,104.96,307.81,105,307.82z"/>
				<path class="st4" d="M105.27,305.95c-0.01,0.09-0.02,0.18-0.04,0.28c-0.09-0.02-0.18-0.04-0.28-0.05
					c0.01-0.08,0.02-0.17,0.03-0.26C105.07,305.93,105.17,305.94,105.27,305.95z"/>
				<path class="st4" d="M105.23,306.22c-0.01,0.09-0.02,0.18-0.03,0.26c-0.08-0.01-0.16-0.03-0.24-0.04c0-0.09,0-0.18,0-0.27
					C105.05,306.19,105.14,306.21,105.23,306.22z"/>
				<path class="st4" d="M105.2,306.48c-0.01,0.09-0.02,0.18-0.04,0.26c-0.07-0.01-0.15-0.02-0.22-0.04c0-0.09,0.01-0.18,0.01-0.27
					C105.04,306.46,105.12,306.47,105.2,306.48z"/>
				<path class="st4" d="M105.16,306.75c-0.01,0.09-0.02,0.18-0.03,0.26c-0.07-0.01-0.13-0.02-0.2-0.03c0-0.09,0.01-0.18,0.01-0.27
					C105.02,306.72,105.09,306.73,105.16,306.75z"/>
				<path class="st4" d="M105.13,307.01c-0.01,0.09-0.03,0.18-0.04,0.26c-0.06-0.01-0.11-0.01-0.17-0.02
					c-0.07-0.09-0.07-0.18,0.02-0.27C105,306.99,105.06,307,105.13,307.01z"/>
				<path class="st4" d="M105.09,307.27c-0.01,0.09-0.02,0.18-0.03,0.27c-0.06-0.01-0.12-0.02-0.18-0.03
					c-0.08-0.1-0.06-0.19,0.04-0.26C104.97,307.26,105.03,307.26,105.09,307.27z"/>
				<path class="st4" d="M105.06,307.54c-0.02,0.09-0.04,0.18-0.06,0.28c-0.04-0.01-0.08-0.02-0.13-0.03
					c-0.08-0.09-0.09-0.18,0.01-0.27C104.94,307.52,104.99,307.53,105.06,307.54z"/>
				<path class="st4" d="M110.2,309.81c-0.05,0.1-0.08,0.22-0.22,0.16c-0.01,0,0.02-0.13,0.04-0.2
					C110.08,309.78,110.14,309.8,110.2,309.81z"/>
				<path class="st4" d="M99.81,325.73c0.15,0.22,0.03,0.25-0.16,0.24c0-0.04,0.01-0.09,0.02-0.14c0.05-0.04,0.11-0.07,0.16-0.11
					H99.81z"/>
				<path class="st4" d="M81.94,311.32c0.09,0,0.17,0,0.25,0c0,0.07,0,0.14,0,0.21c-0.09,0.08-0.19,0.08-0.26-0.02
					C81.93,311.45,81.93,311.38,81.94,311.32z"/>
				<path class="st4" d="M81.67,311.37c0.09-0.02,0.18-0.04,0.27-0.05c-0.01,0.06-0.01,0.13-0.02,0.19
					c-0.11,0.08-0.19,0.07-0.27-0.04C81.66,311.44,81.67,311.4,81.67,311.37z"/>
				<path class="st4" d="M110.79,323.61c0.11-0.01,0.25-0.08,0.26,0.1c0.01,0.18-0.14,0.15-0.25,0.16
					C110.8,323.79,110.79,323.7,110.79,323.61z"/>
				<path class="st4" d="M111.75,323.74c0,0.02,0.01,0.05,0.01,0.07c-0.04,0-0.08,0.01-0.12,0.01c0.01-0.03,0-0.07,0.02-0.09
					C111.68,323.72,111.72,323.73,111.75,323.74z"/>
				<path class="st4" d="M112.24,323.87c-0.1-0.02-0.29,0.02-0.24-0.15c0.05-0.19,0.17-0.05,0.26,0
					C112.25,323.76,112.25,323.82,112.24,323.87z"/>
				<path class="st4" d="M112.26,323.72c0.11-0.06,0.19-0.03,0.26,0.07l0.01-0.02c-0.02,0.22-0.17,0.12-0.29,0.11
					C112.25,323.82,112.25,323.76,112.26,323.72z"/>
				<path class="st4" d="M112.81,323.76c-0.04,0.05,0.02,0.19-0.12,0.15c-0.06-0.02-0.11-0.1-0.16-0.14l-0.01,0.02
					c0.09,0,0.19-0.01,0.28-0.01C112.8,323.78,112.81,323.76,112.81,323.76z"/>
				<path class="st4" d="M113.06,323.79c-0.05,0.05,0.01,0.18-0.14,0.16c-0.16-0.02-0.07-0.13-0.11-0.19c0,0-0.01,0.02,0,0.02
					c0.08,0.01,0.17,0.03,0.25,0.04V323.79z"/>
				<path class="st4" d="M81.4,311.35c0.09,0.01,0.18,0.01,0.27,0.02c0,0.03-0.01,0.07-0.01,0.1c-0.09,0.04-0.18,0.07-0.26,0.1
					C81.4,311.5,81.4,311.43,81.4,311.35z"/>
				<path class="st4" d="M113.45,324.05c0.01-0.11,0.07-0.15,0.17-0.11c0.02,0.01,0.03,0.06,0.04,0.09c-0.07,0-0.15,0-0.22-0.01
					L113.45,324.05z"/>
				<path class="st4" d="M114.05,324.07c0.05-0.01,0.09-0.01,0.14-0.02c0,0.03,0,0.08-0.01,0.08c-0.04,0.02-0.09,0.03-0.13,0.04
					C114.04,324.14,114.05,324.11,114.05,324.07z"/>
				<path class="st4" d="M74.99,298.4c-1.68-0.83-3.68-0.52-5.33-1.54c-0.88-0.54-1.63-1.35-2.94-1.35c0.79-0.45,2.1-0.22,3.7,0.48
					c1.15,0.5,2.32,0.94,3.69,1.5c-0.39-0.5-0.66-0.82-0.91-1.17c-0.24-0.33-0.8-0.69-0.34-1.11c0.38-0.34,0.74,0.21,1.01,0.43
					c0.93,0.74,1.8,1.54,2.72,2.35c0.05-0.54-0.8-0.77-0.34-1.38c1.43,2.29,3.89,3.54,5.45,5.66c-0.11-0.12-0.24-0.35-0.33-0.34
					c-0.7,0.09-0.89-0.5-1.22-0.88c-0.48-0.56-0.97-1.12-1.67-1.42l0.03,0.01c-1.62-0.44-2.55-1.83-3.79-2.78
					c-0.22-0.17-0.43-0.37-0.65-0.54c-0.05-0.04-0.19-0.02-0.25,0.04c-0.05,0.04-0.08,0.22-0.06,0.23c0.66,0.36,0.44,1.41,1.26,1.64
					C75.02,298.29,75,298.35,74.99,298.4z"/>
				<path class="st4" d="M87.73,308.39c-0.08-0.15-0.12-0.33-0.35-0.3c-0.4-0.51-0.79-1.02-1.22-1.57c0.4-0.18,0.61,0.28,0.94,0.22
					c-0.83-1.46-2.31-2.25-3.43-3.39c-0.86-0.88-1.57-1.81-2.06-2.92c-0.11-0.24-0.11-0.47-0.02-0.73c0.79,1.44,1.94,2.53,3.02,3.71
					c-1.72-2.15-2.8-4.65-4.1-7.02c0.08-0.05,0.15-0.09,0.23-0.14c0.82,1.45,1.64,2.89,2.47,4.33c0.78,1.35,1.45,2.78,2.38,4.01
					c0.59,0.77,1.65,1.14,2.28,1.96c0.08,0.1,0.2,0.16,0.27,0.26c0.25,0.39,0.84,0.56,0.64,1.25
					C88.56,308.77,88,308.07,87.73,308.39z"/>
				<path class="st4" d="M89.29,296.24c0.07-0.32-0.02-0.61-0.11-0.92c-0.81-2.89-0.84-5.86-0.84-8.83c0-0.14,0.07-0.29,0.15-0.63
					c0.36,0.85,0.26,1.55,0.29,2.23c0.09,2.25,0.42,4.47,0.66,6.69c0.05,0.48,0.36,1.04-0.18,1.46H89.29z"/>
				<path class="st4" d="M89.89,309.3c1.18,1.61,1.99,3.12,2.77,4.68c-0.14,0.06-0.17,0.07-0.17,0.07
					c-0.03-0.05-0.05-0.13-0.08-0.13c-1.49-0.32-1.92-1.67-2.7-2.81c0.19,0.16,0.34,0.27,0.56,0.45
					C90.21,310.81,89.8,310.24,89.89,309.3z"/>
				<path class="st4" d="M97.37,317.19c1.72,0.19,3.17,0.49,4.58,1.32c-0.41,0.3-0.76,0.15-1.05,0.06c-0.94-0.27-1.9-0.42-2.88-0.48
					c-0.56-0.04-1.2-0.27-1.12-0.88c0.07-0.62,0.6-1.02,1.37-0.71C98.01,316.69,97.76,316.89,97.37,317.19z"/>
				<path class="st4" d="M90.22,315.51c1.82-0.43,3.23,0.41,4.6,1.35C93.15,316.85,91.58,316.53,90.22,315.51z"/>
				<path class="st4" d="M81.4,311.57c0.09-0.03,0.17-0.06,0.26-0.1c0.07,0.11,0.16,0.12,0.27,0.04c0.08,0.1,0.17,0.1,0.26,0.02
					c0.58,0.76,1.72,0.27,2.5,1.21c-1.76-0.28-3.33-0.36-4.85-0.74C80.23,311.34,80.9,311.81,81.4,311.57z"/>
				<path class="st4" d="M94.39,312.71c-0.42-0.46-1-0.55-1.51-0.76c-0.67-0.27-1.08-0.77-1.32-1.41c-0.07-0.18-0.05-0.49,0.06-0.61
					c0.18-0.18,0.4,0.01,0.57,0.15C93.07,310.83,93.97,311.56,94.39,312.71z"/>
				<path class="st4" d="M104.76,318.64c0.65-0.58,0.94,0.32,1.44,0.29c-0.01,0.53-1.26-0.02-0.7,0.93
					c-0.39,0.07-0.65-0.22-0.98-0.32c-0.21-0.06-0.48-0.17-0.37-0.45c0.1-0.27,0.4-0.03,0.6-0.13c0.13,0.04,0.31,0.21,0.38,0.03
					C105.21,318.74,104.99,318.66,104.76,318.64z"/>
				<path class="st4" d="M101.96,317.01c0.1,0.16,0.24,0.28,0.14,0.45c-0.13,0.2-0.3,0.15-0.48,0.07c-0.56-0.28-1.12-0.55-1.69-0.82
					c-0.15-0.07-0.3-0.18-0.25-0.35c0.05-0.17,0.24-0.18,0.39-0.18C100.85,316.14,101.38,316.67,101.96,317.01z"/>
				<path class="st4" d="M98.9,316.17c0.62-0.52,1.29-0.96,2.16-1.01C100.45,315.71,99.68,315.94,98.9,316.17z"/>
				<path class="st4" d="M78.47,294.29c0.49,0.29,0.49,0.58,0.52,1.05C78.8,294.96,78.68,294.73,78.47,294.29z"/>
				<path class="st4" d="M89.26,296.24c0.42,0.16,0.22,0.56,0.33,0.85l0.02,0c-0.37-0.18-0.21-0.56-0.32-0.85
					C89.29,296.24,89.26,296.24,89.26,296.24z"/>
				<path class="st4" d="M93.93,309.89c-0.02-0.28-0.55-0.24-0.41-0.63c0.09,0.24,0.14,0.52,0.42,0.64L93.93,309.89z"/>
				<path class="st4" d="M73.26,301.17c0.16,0.01,0.29-0.02,0.37,0.04c0.11,0.06,0.14,0.18,0.02,0.28
					c-0.13,0.11-0.23,0.02-0.31-0.06C73.31,301.37,73.3,301.28,73.26,301.17z"/>
				<path class="st4" d="M79.85,301.11c0.02,0.05,0.04,0.11,0.07,0.15c-0.06-0.02-0.13-0.04-0.17-0.08
					c-0.03-0.04-0.03-0.11-0.04-0.16C79.76,301.05,79.81,301.08,79.85,301.11z"/>
				<path class="st4" d="M85.02,305.71c0.13,0.06,0.21,0.06,0.24,0.11c0.05,0.07,0.07,0.15,0.09,0.23
					c-0.07-0.01-0.15-0.01-0.19-0.05C85.11,305.95,85.09,305.85,85.02,305.71z"/>
				<path class="st4" d="M78.49,299.64c0.08,0.13,0.16,0.26,0.25,0.42c-0.23-0.09-0.38-0.18-0.22-0.41L78.49,299.64z"/>
				<path class="st4" d="M85.63,311.33c-0.05-0.19,0.08-0.19,0.19-0.18c0.05,0,0.1,0.05,0.15,0.09c-0.12,0.02-0.24,0.04-0.35,0.06
					C85.62,311.3,85.63,311.33,85.63,311.33z"/>
				<path class="st4" d="M90.03,316.96c0,0.05,0,0.11-0.01,0.17c-0.05-0.02-0.12-0.02-0.17-0.05c-0.12-0.08-0.05-0.15,0.03-0.18
					C89.92,316.88,89.98,316.94,90.03,316.96z"/>
				<path class="st4" d="M89.46,298.03c0.05,0.06,0.09,0.12,0.13,0.18c-0.02-0.01-0.05-0.01-0.06-0.02
					c-0.02-0.05-0.03-0.11-0.05-0.16H89.46z"/>
				<path class="st4" d="M89.64,297.76c-0.11-0.12-0.19-0.25-0.15-0.42l-0.03-0.01c0.05,0.14,0.11,0.28,0.16,0.42
					C89.61,297.76,89.64,297.76,89.64,297.76z"/>
				<path class="st4" d="M91.06,305.53c-0.05,0-0.11,0.01-0.16,0.01c0.02-0.08,0.02-0.16,0.05-0.23c0.01-0.02,0.13-0.02,0.14,0
					C91.15,305.37,91.18,305.47,91.06,305.53z"/>
				<path class="st4" d="M75.03,298.23c0.18-0.01,0.31,0.03,0.3,0.24c-0.12-0.02-0.23-0.04-0.34-0.06
					C75,298.35,75.02,298.29,75.03,298.23z"/>
				<path class="st4" d="M78.83,293.59c0.06,0.09,0.12,0.17,0.18,0.26c-0.05,0.01-0.11,0.03-0.14,0.01
					c-0.09-0.08-0.16-0.17-0.01-0.27L78.83,293.59z"/>
				<path class="st4" d="M89.49,297.35c-0.01-0.11-0.05-0.24,0.13-0.25l-0.02,0c-0.04,0.09-0.08,0.17-0.13,0.25L89.49,297.35z"/>
				<path class="st4" d="M80.39,294.86c-0.02,0.07-0.04,0.14-0.07,0.2c-0.05-0.06-0.11-0.13-0.16-0.2
					C80.24,294.86,80.32,294.86,80.39,294.86z"/>
				<path class="st4" d="M99.83,325.73c-0.05,0.04-0.11,0.07-0.16,0.11C99.72,325.8,99.78,325.76,99.83,325.73z"/>
				<path class="st4" d="M84.79,312.68c0.01,0.02,0.01,0.04,0.01,0.06c-0.04,0-0.07,0-0.11,0c0-0.03,0-0.06,0.02-0.08
					C84.73,312.66,84.77,312.67,84.79,312.68z"/>
				<path class="st4" d="M89.49,298.03c0.05-0.09,0.1-0.18,0.16-0.26c-0.01,0-0.03,0-0.03-0.01c-0.05,0.09-0.1,0.18-0.15,0.27H89.49
					z"/>
				<path class="st4" d="M90.94,304.91c0.04,0.02,0.09,0.04,0.12,0.06c0.01,0.01-0.01,0.06-0.01,0.09
					c-0.04-0.02-0.09-0.03-0.13-0.07C90.92,304.99,90.93,304.94,90.94,304.91z"/>
				<path class="st4" d="M104.88,307.51c-0.1,0.09-0.09,0.18-0.01,0.27c-0.12,0.18-0.21,0.35,0.11,0.43
					c-0.52,0.07-0.81-0.03-0.67-0.67c0.14-0.61,0.25-1.22,0.51-1.8c0-0.01,0.05,0,0.07,0.01c0.04,0.06,0.07,0.11,0.1,0.16
					c-0.01,0.09-0.02,0.18-0.03,0.26c0,0.09,0,0.18,0,0.27c-0.01,0.09-0.01,0.18-0.01,0.27c-0.01,0.09-0.01,0.18-0.01,0.27
					c-0.09,0.09-0.09,0.17-0.02,0.27C104.82,307.33,104.8,307.41,104.88,307.51z"/>
				<path class="st4" d="M104.76,318.64c0.22,0.02,0.45,0.1,0.36,0.36c-0.06,0.17-0.25,0.01-0.38-0.03
					C104.75,318.86,104.76,318.75,104.76,318.64z"/>
			</g>
			<g>
				<path class="st4" d="M361.81,167.09c0,0.33,0.05,0.68-0.22,0.95c-0.69-0.08-0.82-0.44-0.65-1.09c0.23-0.88,0.75-1.96,0.46-2.67
					c-0.59-1.45-1.03-2.99-1.8-4.38c-0.41-0.73-0.89-1.64-0.02-2.24c0.82-0.56,1.46,0.18,1.97,0.83c0.22,0.28,0.35,0.64,0.54,0.94
					c0.25,0.38,0.22,0.95,0.8,1.22c0.15-0.48-0.07-0.89-0.16-1.29c-0.75-3.52-2.03-6.88-2.99-10.35c-1.11-3.96-2.51-7.84-3.15-11.92
					c-0.25-1.58-0.36-3.17-0.17-4.74c0.07-0.57,0.36-1.45,0.74-1.56c0.66-0.19,1.05,0.68,1.29,1.21c0.14,0.31-0.06,0.82,0.13,1.29
					c0.58,1.47,1.17,2.95,1.61,4.45c1.69,5.69,3.09,11.45,4.02,17.31c0.21,1.32,0.3,2.66,0.47,4.28c0.74-1.44,0.84-2.8,1.22-4.05
					c0.35,0.93-0.39,1.64-0.34,2.62c0.21-0.44,0.35-0.81,0.55-1.12c0.21-0.31,0.7-0.52,0.18-0.98c-0.05-0.05,0.04-0.23,0.02-0.35
					c-0.13-0.85,0.36-1.8,0.22-2.4c-0.41-1.74,0.46-3.1,0.65-4.64c0.07,0.9-0.48,1.77-0.03,2.93c0.62-1.18,0.42-2.3,0.65-3.32
					c0.26-1.14-0.59,0.08-0.68-0.51c0.24-0.77,0.48-1.69,0.81-2.58c0.6-1.58,1.63-1.79,2.87-0.62c0.05,0.07,0.11,0.13,0.17,0.2
					c0.03-0.09,0.07-0.2,0.1-0.3c0.21-0.63,0.14-1.24-0.06-1.88c-0.31-1-0.72-2.01-0.8-3.04c-0.15-2.04,0.01-4.12-1.83-5.6
					c-0.08-0.07-0.13-0.19-0.18-0.3c-0.69-1.7-1.35-3.4-2.24-5.01c-0.25-0.45-1.08-1.05-0.55-1.39c0.55-0.35,1,0.54,1.34,1.05
					c1.74,2.59,3.09,5.39,4.08,8.36c0.58,1.74,1.5,3.44,0.82,5.36c-0.08,0.23-0.24,0.5-0.02,0.78c0.16-0.15,0.3-0.29,0.44-0.42
					c-0.03,0.13-0.07,0.26-0.09,0.39c0.06-0.02,0.14-0.01,0.16-0.05c0.06-0.13,0.1-0.28-0.1-0.34c0.37-0.15,0.02-0.72,0.45-0.85
					c0.51,0.31-0.05,0.81,0.28,1.27c0.26-0.62,0.02-1.56,1.08-1.58c0.16,1.45,0.72,2.87,0.23,4.36c-0.08,0.22-0.12,0.46,0.22,0.57
					c0.35,0.11,0.4-0.18,0.45-0.38c0.36-1.42,1.17-2.7,1.1-4.28c-0.03-0.67-0.11-1.79,1.19-1.6c0.34,0.04,0.31-0.29,0.41-0.47
					c0.83-1.42,1.18-3.11,2.14-4.46c0.32-0.45,0.59-1.31,1.25-1.01c0.72,0.34,0.45,1.18,0.28,1.85c-0.08,0.31-0.19,0.61-0.29,0.91
					c-0.32,1.04-0.65,2.08-0.96,3.13c0.21-0.05,0.28-0.18,0.35-0.29c1.08-1.62,2.34-3.08,3.63-4.5c0.36-0.39,0.8-0.96,1.39-0.54
					c0.58,0.42,0.21,1.06-0.01,1.54c-0.38,0.82-0.84,1.61-1.3,2.4c-0.49,0.83-0.5,0.81-0.3,1.96c1.44-1.23,2.6-2.75,4.25-3.71
					c0.44-0.26,1.08-0.05,1.35-0.7c0.22-0.54,0.74-0.55,1.2-0.31c0.54,0.27,0.43,0.86,0.21,1.16c-0.93,1.3-1.46,2.88-2.62,4.02
					c-2.38,2.33-3.88,5.34-5.93,7.93c-0.03,0.04,0.03,0.15,0.05,0.3c0.51-0.04,1.15-0.63,1.52,0.17c0.34,0.71,0.23,1.41-0.26,2.02
					c-0.05,0.06-0.1,0.13-0.15,0.19c-1.31,1.48-2.71,2.86-4.41,3.89c-2.49,1.5-4.98,2.98-7.46,4.51c-0.57,0.35-1.25,0.66-1.48,1.64
					c3.95-2.3,8.16-3.46,12.26-4.92c2.03-0.72,4.16-1.13,6.33-1.3c0.58-0.05,1.25,0.04,1.4,0.65c0.16,0.66-0.56,0.78-0.99,0.93
					c-1.77,0.63-3.54,1.27-5.42,1.57c-1.65,0.25-3.32,0.39-4.96,0.73c-1.2,0.25-2.25,0.93-3.34,1.52c-2.09,1.14-4.34,2-6.53,2.97
					c-0.06-0.1-0.11-0.21-0.17-0.31c0.24-0.78,0.48-1.55,0.74-2.39c-0.54-0.04-0.59,0.59-1,0.66c0.33-2.1,1.71-3.67,2.52-5.51
					c0.62-1.41,1.02-2.82,1.12-4.37c0.02-0.34-0.07-0.61-0.3-0.88c-0.29,2.05-1.15,3.85-1.89,5.71c1.07-3.31,1.23-6.74,1.7-10.13
					c-0.11-0.02-0.22-0.04-0.33-0.06c-0.33,2.08-0.65,4.15-0.98,6.22c-0.32,1.94-0.47,3.94-1.03,5.8c-0.35,1.17-1.41,2.07-1.79,3.31
					c-0.04,0.16-0.16,0.28-0.2,0.44c-0.12,0.57-0.72,1.03-0.19,1.75c0.56,0.77,0.91-0.3,1.37-0.04l-0.02-0.04
					c-0.11,0.35-0.48,0.74-0.12,1.06c0.36,0.32,0.79,0.11,1.2-0.11c1.52-0.82,3.05-1.61,4.59-2.4c0.68-0.35,1.35-0.77,2.39-0.99
					c-0.65,1.27-2.07,1.43-2.52,2.6c0.9,0.09,1.6-0.7,2.52-0.43c-0.21,0.62-0.79,0.56-1.15,0.82c-1.05,0.71-2.29,1.14-3.15,2.13
					c-0.02-0.25-0.18-0.19-0.31-0.14c-0.06,0.03-0.09,0.11-0.13,0.16c0.15-0.02,0.29-0.04,0.44-0.07c1.34-0.47,2.68-0.94,4.01-1.42
					c0.04,0.09,0.07,0.18,0.11,0.26c-0.35,1.15-1.88,1.05-2.39,2.49c1.94-1.07,3.73-1.84,5.34-2.93c-0.75-0.62-1.33,0.23-2.01,0.15
					c-0.03-0.08-0.06-0.18-0.09-0.26c1.79-1.15,4.09-0.62,5.85-1.78c-1.23-0.91-2.74-1.28-4.29-1.49c0.04-0.16,0.03-0.27,0.08-0.3
					c3.05-1.87,6.3-2.98,9.97-2.3c0.58,0.11,1.28,0.23,1.29,1.01c0.02,0.78-0.63,0.99-1.25,1.18c-1.29,0.37-2.59,0.75-3.86,1.18
					c-0.35,0.12-0.99,0.29-0.3,0.84c0.93,0.73,0.68,1.47,0.05,2.15c-0.44,0.49-0.96,0.94-1.49,1.33c-2.99,2.17-6.09,4.18-9.26,6.08
					c-1.05,0.63-2.1,1.26-3.48,0.93c-0.45-0.11-1.11,0.15-1.61,0.84c0.73-0.44,1.27-0.25,1.85-0.08c-0.12,0.15-0.28,0.16-0.41,0.22
					c-0.16,0.08-0.36,0.17-0.3,0.51c0.26-0.04,0.52-0.05,0.76-0.12c3.41-0.82,6.88-1.14,10.4-1.03c1.92,0.06,3.75,0.52,5.55,1.18
					c0.51,0.18,1.04,0.44,0.94,1.07c-0.1,0.56-0.66,0.46-1.08,0.48c-1.01,0.03-2.02-0.06-3.04-0.17c-1.71-0.18-3.41-0.18-5.13-0.24
					c-1.03-0.04-2.06-0.5-3.09-0.07c-1.29-1.21-2.69-0.52-4.05-0.29c-1.52,0.26-2.9,1.18-4.35,1.39c-1.98,0.29-2.97,1.74-4.51,2.6
					c0.5,0.45,0.92,0.26,1.28,0.28c3.1,0.1,6.03,0.79,8.71,2.51c0.44,0.28,0.89,0.58,1.13,1.05c0.18,0.36,0.17,0.85-0.37,0.71
					c-0.9-0.24-1.84-0.47-2.5-1.26c-0.19-0.22-0.14-0.37,0.07-0.46c0.1-0.04,0.29-0.06,0.33,0.29c-1.8-1.09-3.67-1.65-5.67-1.75
					c-0.07,0.04-0.13,0.08-0.2,0.12c-0.31-0.12-0.49,0.17-0.74,0.24c-0.25,0.06-0.72-0.3-0.72,0.13c-0.01,0.61,0.55,0.21,0.82,0.26
					c2.46,0.43,4.78,1.19,6.77,2.82c0.25,0.21,0.54,0.42,0.48,0.78c-0.08,0.46-0.5,0.42-0.83,0.51c-0.66,0.19-1.22-0.25-1.84-0.34
					c-2.61-0.36-5.12-1.34-7.77-1.58c-0.79-0.08-1.6-0.32-2.12,0.26c-0.66,0.74-1.5,0.83-2.31,0.91c-1.23,0.12-2.39,0.5-3.68,0.71
					c1.22,0.91,2.62,1.44,3.65,1.56c4.18,0.47,7.78,2.15,10.45,5.63c0.35,0.46,0.96,1.03,0.54,1.59c-0.48,0.64-1.2,0.09-1.72-0.17
					c-1.84-0.94-2.95-2.83-4.81-3.77c0.05-0.08,0.12-0.16,0.17-0.25c0.84,0.51,1.69,1.02,2.73,1.65c-0.6-1.08-1.85-1.23-2-2.35
					c-0.02-0.05-0.06-0.1-0.09-0.15c-0.07-0.02-0.15-0.04-0.23-0.06l0.02-0.01c-1.16-0.23-2.26-0.67-3.31-1.24
					c-0.43-0.23-0.79-0.1-1.17,0.07c0.47,0.33-0.44,0.98,0.3,1.24c0.25,0.09,0.37,0.31,0.45,0.53c0.22,0.66,0.81,1.45,0.05,1.96
					c-0.72,0.5-1.25-0.26-1.62-0.81c-0.6-0.92-1.36-1.08-2.34-0.92c-2.05,0.36-4.01,1.03-6.01,1.59c-0.03-0.1-0.06-0.21-0.09-0.32
					c0.78-0.64,1.21-1.69,2.29-1.99c0.22-0.06,0.25-0.36,0.15-0.62c-0.14-0.38-0.44-0.14-0.58-0.11c-1.3,0.27-2.3,1.12-3.3,1.92
					c-0.35,0.27-0.6,0.28-0.91,0.14c-0.45-0.19-0.2-0.54-0.13-0.83c0.08-0.3,0.13-0.64,0.28-0.9c1.3-2.27,1.41-4.8,1.52-7.34
					c0.05-0.88-0.37-1.64-0.49-2.46c-0.29-1.9-2.14-4.11-4.01-4.7c-0.07,0.03-0.14,0.07-0.2,0.12c-0.28-0.4-0.59-0.77-0.83-1.19
					c-0.21-0.37-0.54-0.81-0.15-1.2c0.33-0.35,0.8-0.27,1.22-0.09c1.36,0.59,2.63,1.3,3.45,2.67c1.5,2.54,2.32,5.22,2.12,8.17
					c-0.04,0.48-0.19,0.95,0.04,1.59c1.05-3.41,1.99-6.68,3.6-9.69c0.22-0.4,0.48-0.59,0.91-0.57c-0.01,0.01-0.04,0.05-0.04,0.05
					c-0.33-0.22-0.39-0.57-0.47-0.92c-0.06-0.3-0.15-0.59-0.22-0.87c-0.22,0.01-0.09,0.55-0.56,0.24c0.45-1.44,0.89-2.9,1.35-4.39
					c0.44,0.3-0.19,0.92,0.49,1.14c0.46-1.05,0.55-2.15,0.49-3.32c-0.51,0.28-0.33,0.85-0.72,1.22c-0.19-1.22,0.25-2.27,0.31-3.37
					c0.04-0.74-0.06-1.26-0.74-1.74c-0.99-0.69-1.98-1.4-2.8-2.32c-0.25-0.29-0.72-0.51-0.57-0.97c0.18-0.53,0.7-0.42,1.12-0.45
					c0.87-0.06,1.73,0.02,2.57,0.36c0.29,0.11,0.66,0.34,0.73-0.16c0.17-1.19,0.2-2.35,0.95-3.45c0.52-0.76,0.21-1.95,0.17-2.95
					c-0.01-0.31-0.04-0.89-0.05-0.89c-1.33,0-0.18-1.14-0.69-1.5c0.39-0.58,0.14-1.24,0.16-1.85c0.06-2.03,0.18-4.03,1.02-5.9
					c0.15-0.3,0.25-0.62,0.6-0.66c0.39-0.04,0.67,0.2,0.85,0.55c0.12,0.25,0.26,0.5,0.32,0.77c0.58,2.14,1.16,4.28,1.38,6.49
					c0.38,3.84-0.12,7.61-0.59,11.38c-0.07,0.6-0.32,1.21,0.15,1.84c1.07,1.42,1.39,3.15,1.99,4.77c0.47,1.25-0.07,2.13-0.39,3.14
					c-0.11,0.36-0.43,0.65-0.79,0.56c-0.51-0.13-0.22-0.56-0.24-0.9c-0.04-0.7,0.79-1.18,0.42-1.92c-0.2-0.41-0.22-0.81-0.23-1.26
					c-0.01-1.3-0.76-2.07-1.84-2.01c0.03,0.46,0.94,0.88,0.55,1.07c-1.16,0.59-0.86,1.91-1.07,2.68c-0.34,1.31-0.52,2.77-0.76,4.16
					c-0.11,0.64,0.09,0.85,0.61,0.85c1.16,0.01,1.7-0.55,1.77-1.77c0.02-0.45,0.16-0.78,0.6-0.91c0.54-0.17,0.52,0.32,0.71,0.61
					c0.51-0.57,0.95-1.17,1.21-1.9c0.05-0.12,0.12-0.34,0.31-0.17c0.07,0.06,0.06,0.23,0.02,0.08c0.18-0.44-0.14-1.32,0.59-1.87
					C361.52,167.68,362.15,167.5,361.81,167.09z M361.6,151.93c-0.02,0.09-0.04,0.17-0.06,0.26c0.02-0.01,0.05-0.03,0.05-0.04
					c0.01-0.07,0-0.14-0.01-0.22c-0.1-0.08-0.19-0.16-0.3-0.25c0.08-0.18,0.11-0.37,0-0.56c-0.04-0.14-0.05-0.31-0.26-0.25
					c0.36-0.38,0-0.77,0-1.15c-0.22-0.35-0.24-0.74-0.27-1.15c-0.32-3.81-1.6-7.37-2.9-10.93c-0.06-0.17-0.21-0.32-0.45-0.69
					c-0.05,1.16,0.37,1.98,0.64,2.8c0.89,2.73,1.47,5.53,2.17,8.29c0.15,0.6,0.03,1.4,0.85,1.68c-0.41,0.37,0,0.77-0.01,1.15
					c0.09,0.08,0.18,0.16,0.27,0.25c0,0.19,0,0.38-0.01,0.57C361.4,151.76,361.5,151.84,361.6,151.93z M352.81,183.06
					c-1.01-0.43-0.95,0.78-1.55,0.96c0.25,0.63,1.46-0.56,1.22,0.81c0.49-0.08,0.67-0.54,1-0.78c0.22-0.15,0.48-0.41,0.24-0.69
					c-0.24-0.28-0.49,0.13-0.75,0.09C352.92,183.32,352.87,183.19,352.81,183.06z M375,149.84c0.23-0.21,0.37-0.38,0.07-0.59
					c1.7-1.21,2.17-3.26,3.2-4.93c0.18-0.3,0.34-0.63,0.52-0.92c0.05-0.07,0.22-0.09,0.31-0.07c0.08,0.03,0.19,0.23,0.17,0.25
					c-0.61,0.71,0.11,1.87-0.75,2.5c-0.21,0.05-0.34,0.16-0.24,0.41c0.12-0.07,0.25-0.15,0.37-0.22c1.59-1.71,4.06-2.18,5.53-4.08
					c0.79-1.03,1.31-2.32,2.84-2.86c-1.13-0.21-2.54,0.62-4.11,2.13c-1.12,1.08-2.28,2.11-3.64,3.35c0.24-0.77,0.41-1.26,0.54-1.77
					c0.14-0.5,0.64-1.16-0.09-1.47c-0.59-0.25-0.77,0.56-0.99,0.94c-0.76,1.27-1.42,2.61-2.15,3.96c-0.29-0.62,0.61-1.26-0.21-1.79
					c-0.66,3.35-2.98,5.88-3.88,9.08c0.08-0.19,0.13-0.52,0.24-0.54c0.86-0.19,0.83-0.97,1.04-1.58c0.31-0.88,0.63-1.75,1.32-2.4
					C375.07,149.42,375.04,149.61,375,149.84z M364.88,172.38c0.19,0.01,0.23,0.02,0.23,0.01c0.01-0.06,0-0.16,0.04-0.19
					c1.59-1.01,1.5-2.81,1.91-4.5c-0.16,0.28-0.27,0.47-0.46,0.78c-0.25-0.92-0.02-1.78-0.55-2.88
					C365.38,168.02,365.1,170.18,364.88,172.38z M356.05,181.73c0.61,0.18,0.95-0.14,1.25-0.36c0.98-0.73,2.04-1.31,3.15-1.8
					c0.64-0.29,1.29-0.83,0.93-1.54c-0.36-0.71-1.15-0.97-1.91-0.27c0.36,0.12,0.74,0.25,1.34,0.46
					C358.89,179.16,357.32,180.13,356.05,181.73z M363.63,176.74c1.94-0.72,3.63-1.77,4.78-3.56
					C366.09,173.42,364.82,175.04,363.63,176.74z M363.74,170.04c0.66-0.61,0.92-1.38,0.92-2.25c0-0.24-0.16-0.61-0.34-0.69
					c-0.29-0.14-0.46,0.17-0.6,0.42c-0.7,1.27-1.43,2.52-1.41,4.07C362.59,170.87,363.23,170.5,363.74,170.04z M355.4,180.52
					c0.23,0.19,0.42,0.07,0.6-0.12c0.53-0.56,1.07-1.13,1.61-1.69c0.14-0.15,0.26-0.33,0.13-0.52c-0.13-0.19-0.35-0.11-0.53-0.05
					c-0.92,0.29-1.31,1.15-1.84,1.79C355.31,180.16,355.21,180.37,355.4,180.52z M355.61,177.33c0.95,0.41,1.95,0.37,2.96,0.3
					C357.61,177.26,356.64,177.02,355.61,177.33z M372.64,144.3c0.05-0.54,0.08-0.87,0.15-1.48
					C372.35,143.37,372.48,143.72,372.64,144.3z M381.45,149.05c-0.09,0.12-0.08,0.29,0.1,0.36c0.19,0.07,0.27-0.09,0.34-0.21
					c0.03-0.08-0.01-0.19-0.01-0.35C381.7,148.93,381.53,148.96,381.45,149.05z M374.16,151.78c0.06-0.06,0.14-0.1,0.16-0.17
					c0.02-0.06-0.02-0.14-0.02-0.21c-0.05,0.05-0.09,0.11-0.13,0.17C374.16,151.64,374.16,151.71,374.16,151.78z M369.92,159.48
					c-0.03,0.09-0.01,0.21-0.01,0.31c0.07-0.04,0.18-0.08,0.21-0.14c0.04-0.09,0.03-0.21,0.04-0.41
					C370.04,159.36,369.94,159.42,369.92,159.48z M369.34,175.04c0.06-0.05,0.14-0.07,0.18-0.13c0.11-0.14,0-0.2-0.12-0.21
					c-0.04,0-0.09,0.08-0.14,0.14C369.28,174.91,369.31,174.97,369.34,175.04z M363.23,161.52c-0.06-0.09-0.1-0.18-0.16-0.25
					c-0.02-0.02-0.16,0.02-0.17,0.06c-0.03,0.1-0.02,0.22,0.14,0.25C363.09,161.57,363.16,161.54,363.23,161.52z M373.5,167.59
					c0.04-0.01,0.08-0.03,0.13-0.04c-0.02-0.03-0.03-0.09-0.05-0.09c-0.03-0.01-0.06,0.03-0.09,0.05
					C373.49,167.54,373.49,167.56,373.5,167.59z M362.79,160.92c-0.01,0.02,0.03,0.06,0.05,0.1c0.04-0.05,0.09-0.08,0.12-0.13
					c0.01-0.02-0.03-0.07-0.05-0.1C362.86,160.84,362.82,160.87,362.79,160.92z"/>
				<path class="st4" d="M348,170.65c0.64,2.16,1.94,4.07,2.39,6.35c1.21-1.78,1.34-2.28,0.58-4.06c-2.21-5.29-4.89-10.29-9.1-14.28
					c-1.07-1.01-1.4-1.24-2.62-1.4c3.26,3.21,5.31,7.03,7.4,10.82c0.11-0.06,0.21-0.11,0.32-0.16c0.02-0.08,0.02-0.16,0.05-0.23
					c0-0.02,0.07-0.05,0.07-0.04c0.55,0.58,0.96,1.26,1.38,1.94c0.45,0.7,0.14,0.95-0.49,1.08L348,170.65z"/>
				<path class="st4" d="M344.16,193.79c-1.72-0.5-0.39-1.45-0.38-2.39c-0.63,0.75-1.6,1.04-1.47,2.12
					c0.05,0.44,0.23,0.97,0.64,1.09C343.5,194.79,343.75,194.18,344.16,193.79z"/>
				<path class="st4" d="M376.43,163.16c-0.19-0.04-0.33,0.02-0.32,0.2c0.01,0.08,0.13,0.18,0.21,0.22
					c0.14,0.06,0.31,0.07,0.34-0.14C376.71,163.25,376.54,163.2,376.43,163.16z"/>
				<path class="st4" d="M364.91,181.09c0.14,0.18,0.34,0.26,0.49,0.14c0.07-0.06-0.14-0.24-0.29-0.26
					C365.05,181.01,364.98,181.05,364.91,181.09z"/>
				<path class="st4" d="M345.05,193.16c0.24-0.04,0.52-0.06,0.35-0.44l0.01,0.04c-0.16,0.11-0.49,0.08-0.35,0.44L345.05,193.16z"/>
				<path class="st4" d="M368.16,163.57c0.25,0.19,0.31-0.13,0.47-0.17c-0.06-0.1-0.11-0.21-0.17-0.31
					c-0.28,0.06-0.25,0.31-0.27,0.52L368.16,163.57z"/>
				<path class="st4" d="M347.79,170.2c0.07,0.15,0.14,0.3,0.22,0.45l-0.02,0.01c0.34-0.22,0.16-0.39-0.06-0.55
					C347.88,170.14,347.83,170.17,347.79,170.2z"/>
				<path class="st4" d="M346.65,168.07c0.05,0.1,0.11,0.21,0.16,0.31c0.1-0.07,0.2-0.12,0.3-0.18c-0.05-0.1-0.1-0.2-0.15-0.29
					C346.86,167.97,346.76,168.02,346.65,168.07z"/>
				<path class="st4" d="M346.81,168.39c0.05,0.1,0.1,0.2,0.16,0.31c0.08-0.06,0.18-0.11,0.26-0.16c-0.04-0.11-0.08-0.22-0.12-0.33
					C347.01,168.26,346.91,168.32,346.81,168.39z"/>
				<path class="st4" d="M346.97,168.69c0.05,0.1,0.11,0.2,0.15,0.3c0.08-0.04,0.16-0.09,0.24-0.14c-0.05-0.11-0.08-0.21-0.13-0.32
					C347.15,168.58,347.06,168.63,346.97,168.69z"/>
				<path class="st4" d="M347.13,168.99c0.05,0.1,0.1,0.2,0.16,0.3c0.07-0.04,0.14-0.08,0.21-0.12c-0.04-0.1-0.09-0.21-0.13-0.31
					C347.29,168.9,347.21,168.94,347.13,168.99z"/>
				<path class="st4" d="M347.28,169.29c0.05,0.1,0.11,0.19,0.16,0.29c0.06-0.03,0.12-0.07,0.18-0.1c0.05-0.14,0.01-0.25-0.13-0.32
					C347.42,169.21,347.35,169.25,347.28,169.29z"/>
				<path class="st4" d="M347.45,169.58c0.05,0.1,0.1,0.21,0.15,0.31c0.06-0.04,0.13-0.07,0.2-0.11c0.04-0.15-0.02-0.25-0.17-0.3
					C347.57,169.52,347.5,169.55,347.45,169.58z"/>
				<path class="st4" d="M347.6,169.89c0.06,0.1,0.13,0.21,0.19,0.31c0.04-0.03,0.09-0.06,0.14-0.09c0.05-0.15,0.03-0.26-0.12-0.32
					C347.73,169.82,347.66,169.86,347.6,169.89z"/>
				<path class="st4" d="M342.59,174.78c0.1,0.1,0.19,0.23,0.34,0.1c0.01-0.01-0.09-0.14-0.14-0.22
					C342.72,174.69,342.66,174.74,342.59,174.78z"/>
				<path class="st4" d="M361.7,189.46c-0.08,0.33,0.07,0.32,0.29,0.22c-0.02-0.05-0.06-0.1-0.09-0.15
					c-0.07-0.02-0.15-0.04-0.23-0.06L361.7,189.46z"/>
				<path class="st4" d="M376.21,164.67c-0.1,0.04-0.2,0.07-0.3,0.1c0.04,0.09,0.07,0.18,0.11,0.26c0.15,0.05,0.25,0.01,0.3-0.14
					C376.29,164.82,376.25,164.75,376.21,164.67z"/>
				<path class="st4" d="M376.55,164.63c-0.11,0.01-0.23,0.03-0.34,0.05c0.04,0.08,0.07,0.15,0.11,0.23
					c0.15,0.05,0.25,0.01,0.29-0.16C376.59,164.7,376.57,164.66,376.55,164.63z"/>
				<path class="st4" d="M347.98,191.56c-0.14,0.03-0.33,0.02-0.27,0.24c0.06,0.21,0.22,0.12,0.36,0.09
					C348.03,191.78,348.01,191.67,347.98,191.56z"/>
				<path class="st4" d="M346.9,192.12c0.01,0.04,0.01,0.06,0.02,0.09c0.04-0.01,0.09-0.03,0.14-0.04c-0.02-0.03-0.03-0.09-0.06-0.1
					C346.98,192.06,346.94,192.1,346.9,192.12z"/>
				<path class="st4" d="M346.39,192.48c0.12-0.07,0.34-0.09,0.21-0.28c-0.14-0.2-0.22,0.01-0.3,0.11
					C346.33,192.36,346.36,192.42,346.39,192.48z"/>
				<path class="st4" d="M346.29,192.31c-0.16-0.04-0.24,0.04-0.28,0.19l-0.02-0.03c0.13,0.26,0.26,0.07,0.38,0.01
					C346.36,192.42,346.33,192.36,346.29,192.31z"/>
				<path class="st4" d="M345.68,192.58c0.07,0.04,0.06,0.24,0.2,0.13c0.07-0.05,0.09-0.16,0.12-0.24l0.02,0.03
					c-0.11,0.04-0.21,0.07-0.32,0.11L345.68,192.58z"/>
				<path class="st4" d="M345.4,192.73c0.08,0.05,0.06,0.23,0.24,0.14c0.18-0.09,0.03-0.19,0.04-0.28l0.02,0.03
					c-0.1,0.05-0.19,0.1-0.29,0.15L345.4,192.73z"/>
				<path class="st4" d="M376.87,164.49c-0.11,0.05-0.21,0.09-0.31,0.14c0.02,0.03,0.04,0.07,0.06,0.12c0.11,0,0.23,0,0.35,0
					C376.93,164.66,376.9,164.57,376.87,164.49z"/>
				<path class="st4" d="M345.06,193.2c-0.06-0.12-0.15-0.15-0.25-0.05c-0.02,0.02-0.01,0.07-0.01,0.12
					c0.08-0.04,0.16-0.07,0.24-0.1L345.06,193.2z"/>
				<path class="st4" d="M344.37,193.48c-0.05,0.01-0.11,0.02-0.17,0.04c0.02,0.03,0.04,0.09,0.06,0.09
					c0.05,0.01,0.11-0.01,0.17-0.02C344.41,193.56,344.39,193.53,344.37,193.48z"/>
				<path class="st4" d="M378.66,146.27c1.59-1.71,4.06-2.18,5.53-4.08c0.79-1.03,1.31-2.32,2.84-2.86
					c-1.13-0.21-2.54,0.62-4.11,2.13c-1.12,1.08-2.28,2.11-3.64,3.35c0.24-0.77,0.41-1.26,0.54-1.77c0.14-0.5,0.64-1.16-0.09-1.47
					c-0.59-0.25-0.77,0.56-0.99,0.94c-0.76,1.27-1.42,2.61-2.15,3.96c-0.29-0.62,0.61-1.26-0.21-1.79
					c-0.66,3.35-2.98,5.88-3.88,9.08c0.08-0.19,0.13-0.52,0.24-0.54c0.86-0.19,0.83-0.97,1.04-1.58c0.31-0.88,0.63-1.75,1.32-2.4
					l-0.04,0.02c1.7-1.21,2.17-3.26,3.2-4.93c0.18-0.3,0.34-0.63,0.52-0.92c0.05-0.07,0.22-0.09,0.31-0.07
					c0.08,0.03,0.19,0.23,0.17,0.25c-0.61,0.71,0.11,1.87-0.75,2.5C378.57,146.15,378.61,146.21,378.66,146.27z"/>
				<path class="st4" d="M368.19,163.6c0.02-0.21-0.01-0.45,0.27-0.52c0.24-0.78,0.48-1.55,0.74-2.39c-0.54-0.04-0.59,0.59-1,0.66
					c0.33-2.1,1.71-3.67,2.52-5.51c0.62-1.41,1.02-2.82,1.12-4.37c0.02-0.34-0.07-0.61-0.3-0.88c-0.29,2.05-1.15,3.85-1.89,5.71
					c1.07-3.31,1.23-6.74,1.7-10.13c-0.11-0.02-0.22-0.04-0.33-0.06c-0.33,2.08-0.65,4.15-0.98,6.22c-0.32,1.94-0.47,3.94-1.03,5.8
					c-0.35,1.17-1.41,2.07-1.79,3.31c-0.04,0.16-0.16,0.28-0.2,0.44c-0.12,0.57-0.72,1.03-0.19,1.75
					C367.37,164.41,367.72,163.34,368.19,163.6z"/>
				<path class="st4" d="M361.02,149.71c-0.22-0.35-0.25-0.74-0.28-1.14c-0.32-3.81-1.6-7.37-2.9-10.93
					c-0.06-0.17-0.21-0.32-0.45-0.69c-0.05,1.16,0.37,1.98,0.64,2.8c0.89,2.73,1.47,5.53,2.17,8.29c0.15,0.6,0.03,1.4,0.85,1.68
					L361.02,149.71z"/>
				<path class="st4" d="M366.05,165.6c-0.67,2.42-0.95,4.58-1.17,6.77c0.19,0.01,0.23,0.02,0.23,0.01c0.01-0.06,0-0.16,0.04-0.19
					c1.59-1.01,1.5-2.81,1.91-4.5c-0.16,0.28-0.27,0.47-0.46,0.78C366.35,167.56,366.58,166.7,366.05,165.6z"/>
				<path class="st4" d="M360.81,178.21c-1.92,0.95-3.49,1.92-4.75,3.51c0.61,0.18,0.95-0.14,1.25-0.36
					c0.98-0.73,2.04-1.31,3.15-1.8c0.64-0.29,1.29-0.83,0.93-1.54c-0.36-0.71-1.15-0.97-1.91-0.27
					C359.83,177.88,360.21,178.01,360.81,178.21z"/>
				<path class="st4" d="M368.4,173.18c-2.31,0.24-3.58,1.85-4.78,3.56C365.56,176.02,367.26,174.97,368.4,173.18z"/>
				<path class="st4" d="M376.96,164.74c-0.12,0-0.23,0-0.35,0c-0.04,0.16-0.14,0.21-0.29,0.16c-0.05,0.15-0.15,0.19-0.3,0.14
					c-0.35,1.15-1.88,1.05-2.39,2.49c1.94-1.07,3.73-1.84,5.34-2.93C378.22,163.97,377.64,164.82,376.96,164.74z"/>
				<path class="st4" d="M362.3,171.59c0.29-0.71,0.93-1.08,1.44-1.55c0.66-0.61,0.92-1.38,0.92-2.25c0-0.24-0.16-0.61-0.34-0.69
					c-0.29-0.14-0.46,0.17-0.6,0.42C363.02,168.79,362.29,170.04,362.3,171.59z"/>
				<path class="st4" d="M352.81,183.06c-1.01-0.43-0.95,0.78-1.55,0.96c0.25,0.63,1.46-0.56,1.22,0.81c0.49-0.08,0.67-0.54,1-0.78
					c0.22-0.15,0.48-0.41,0.24-0.69c-0.24-0.28-0.49,0.13-0.75,0.09c-0.13,0.11-0.28,0.38-0.43,0.2
					C352.34,183.38,352.57,183.18,352.81,183.06z"/>
				<path class="st4" d="M355.36,179.92c-0.05,0.24-0.15,0.45,0.04,0.59c0.23,0.19,0.42,0.07,0.6-0.12
					c0.53-0.56,1.07-1.13,1.61-1.69c0.14-0.15,0.26-0.33,0.13-0.52c-0.13-0.19-0.35-0.11-0.53-0.05
					C356.28,178.43,355.9,179.28,355.36,179.92z"/>
				<path class="st4" d="M358.57,177.63c-0.96-0.37-1.93-0.61-2.96-0.3C356.56,177.74,357.56,177.7,358.57,177.63z"/>
				<path class="st4" d="M372.78,142.82c-0.44,0.55-0.31,0.9-0.15,1.48C372.69,143.75,372.72,143.43,372.78,142.82z"/>
				<path class="st4" d="M361.05,149.71c-0.41,0.37,0,0.77-0.01,1.15c0,0-0.02,0.02-0.02,0.02c0.36-0.38,0-0.77,0-1.15
					C361.02,149.71,361.05,149.71,361.05,149.71z"/>
				<path class="st4" d="M361.61,168.02c-0.09-0.34,0.54-0.52,0.2-0.94c0,0.33,0.05,0.68-0.22,0.95L361.61,168.02z"/>
				<path class="st4" d="M381.87,148.85c-0.18,0.08-0.34,0.11-0.42,0.2c-0.09,0.12-0.08,0.29,0.1,0.36
					c0.19,0.07,0.27-0.09,0.34-0.21C381.92,149.12,381.88,149.01,381.87,148.85z"/>
				<path class="st4" d="M374.16,151.57c0,0.07-0.01,0.14-0.01,0.21c0.06-0.06,0.14-0.1,0.16-0.17c0.02-0.06-0.02-0.14-0.02-0.21
					C374.25,151.46,374.21,151.52,374.16,151.57z"/>
				<path class="st4" d="M370.16,159.25c-0.12,0.12-0.21,0.17-0.24,0.24c-0.03,0.09-0.01,0.21-0.01,0.31
					c0.07-0.04,0.18-0.08,0.21-0.14C370.16,159.57,370.15,159.45,370.16,159.25z"/>
				<path class="st4" d="M375.11,149.24c-0.04,0.19-0.07,0.37-0.11,0.61c0.23-0.21,0.37-0.38,0.07-0.59L375.11,149.24z"/>
				<path class="st4" d="M371.91,166.24c-0.02-0.25-0.18-0.19-0.31-0.14c-0.06,0.03-0.09,0.11-0.13,0.16
					c0.15-0.02,0.29-0.04,0.44-0.07C371.91,166.2,371.91,166.24,371.91,166.24z"/>
				<path class="st4" d="M369.25,174.84c0.03,0.07,0.06,0.13,0.08,0.2c0.06-0.05,0.14-0.07,0.18-0.13c0.11-0.14,0-0.2-0.12-0.21
					C369.35,174.7,369.3,174.79,369.25,174.84z"/>
				<path class="st4" d="M361.61,151.92c-0.03,0.09-0.05,0.18-0.08,0.26c0.02-0.01,0.05-0.03,0.05-0.04c0.01-0.07,0-0.14-0.01-0.22
					L361.61,151.92z"/>
				<path class="st4" d="M361.28,151.68c0.08-0.18,0.11-0.37,0-0.56l0.04-0.02c0,0.19,0,0.38-0.01,0.56
					C361.31,151.67,361.28,151.68,361.28,151.68z"/>
				<path class="st4" d="M363.04,161.58c0.05-0.01,0.12-0.04,0.19-0.06c-0.06-0.09-0.1-0.18-0.16-0.25
					c-0.02-0.02-0.16,0.02-0.17,0.06C362.86,161.43,362.87,161.55,363.04,161.58z"/>
				<path class="st4" d="M378.53,146.08c-0.21,0.05-0.34,0.16-0.24,0.41c0.12-0.07,0.25-0.15,0.37-0.22
					C378.61,146.21,378.57,146.15,378.53,146.08z"/>
				<path class="st4" d="M372.05,142.13c-0.03,0.13-0.07,0.26-0.09,0.39c0.06-0.02,0.14-0.01,0.16-0.05c0.06-0.13,0.1-0.28-0.1-0.34
					L372.05,142.13z"/>
				<path class="st4" d="M361.28,151.12c-0.04-0.14-0.05-0.31-0.26-0.25c0,0,0.02-0.02,0.02-0.02c0.09,0.09,0.18,0.17,0.27,0.25
					L361.28,151.12z"/>
				<path class="st4" d="M370.8,144.31c0.05,0.07,0.11,0.13,0.17,0.2c0.03-0.09,0.07-0.2,0.1-0.3
					C370.97,144.25,370.88,144.28,370.8,144.31z"/>
				<path class="st4" d="M361.68,189.47c0.08,0.02,0.15,0.04,0.23,0.06C361.83,189.51,361.76,189.5,361.68,189.47z"/>
				<path class="st4" d="M373.48,167.51c0.01,0.03,0.01,0.05,0.01,0.08c0.04-0.01,0.08-0.03,0.13-0.04
					c-0.02-0.03-0.03-0.09-0.05-0.09C373.55,167.45,373.52,167.49,373.48,167.51z"/>
				<path class="st4" d="M361.58,151.93c-0.1-0.08-0.19-0.16-0.3-0.25c0,0,0.03-0.01,0.03-0.01c0.1,0.09,0.2,0.18,0.29,0.26
					C361.61,151.92,361.58,151.93,361.58,151.93z"/>
				<path class="st4" d="M362.91,160.79c-0.04,0.04-0.09,0.08-0.12,0.13c-0.01,0.02,0.03,0.06,0.05,0.1
					c0.04-0.05,0.09-0.08,0.12-0.13C362.96,160.87,362.93,160.82,362.91,160.79z"/>
				<path class="st4" d="M347.8,169.79c0.15,0.06,0.18,0.18,0.12,0.32c0.22,0.16,0.4,0.33,0.06,0.55c0.63-0.13,0.94-0.38,0.49-1.08
					c-0.42-0.67-0.83-1.36-1.38-1.94c-0.01-0.01-0.07,0.02-0.07,0.04c-0.02,0.07-0.03,0.15-0.05,0.23c0.05,0.09,0.1,0.19,0.15,0.29
					c0.04,0.11,0.08,0.22,0.12,0.33c0.05,0.11,0.08,0.21,0.13,0.32c0.04,0.11,0.09,0.21,0.13,0.31c0.14,0.07,0.18,0.18,0.13,0.32
					C347.78,169.54,347.83,169.64,347.8,169.79z"/>
				<path class="st4" d="M352.81,183.06c-0.25,0.12-0.47,0.32-0.26,0.59c0.15,0.18,0.3-0.09,0.43-0.2
					C352.92,183.32,352.87,183.19,352.81,183.06z"/>
			</g>
			<path class="st4" d="M355.42,33.16c0.77-0.13,1.05-0.22,1.32-0.21c0.27,0,0.54,0.1,0.84,0.16
				C356.94,33.75,356.94,33.75,355.42,33.16z"/>
		</g>
		<g>
			<path class="st4" d="M63.99,326.85c-3.07,0.05-5.55-2.36-5.69-5.54c-0.14-3.25,2.35-5.94,5.52-5.97
				c3.09-0.04,5.58,2.38,5.69,5.52C69.62,324.11,67.15,326.79,63.99,326.85z"/>
			<path class="st4" d="M181.75,98.95c-3,0.03-5.39-2.31-5.38-5.25c0.02-2.75,2.17-4.81,5.01-4.82c2.96-0.02,5.51,2.44,5.45,5.23
				C186.79,96.73,184.49,98.92,181.75,98.95z"/>
			<path class="st4" d="M112.19,302.41c0.01,1.36-1.09,2.37-2.49,2.32c-1.16-0.04-2.09-0.97-2.15-2.13
				c-0.06-1.3,1.06-2.48,2.37-2.47C111.15,300.13,112.18,301.17,112.19,302.41z"/>
			<path class="st4" d="M238.41,83.99c-1.55-0.02-2.82-1.28-2.83-2.8c-0.01-1.46,1.1-2.58,2.6-2.63c1.69-0.05,2.98,1.24,2.94,2.96
				C241.09,82.95,239.93,84.02,238.41,83.99z"/>
			<path class="st4" d="M403.65,191.49c0.04,1.66-0.9,2.65-1.97,2.55c-1.15-0.11-1.76-0.85-1.74-1.94c0.02-1.11,0.81-1.92,1.84-1.81
				C402.54,190.38,403.21,191.18,403.65,191.49z"/>
			<path class="st4" d="M89.55,153.41c-1.14,0.72-1.76,1.41-2.46,1.49c-0.98,0.11-1.62-0.66-1.58-1.67
				c0.05-1.01,0.75-1.74,1.71-1.55C87.92,151.82,88.48,152.57,89.55,153.41z"/>
			<path class="st4" d="M31.57,237.16c-0.72-0.88-1.23-1.24-1.35-1.7c-0.25-0.99,0.59-2.31,1.38-2.19c0.43,0.07,1.14,0.74,1.09,1.03
				C32.56,235.13,32.1,235.91,31.57,237.16z"/>
			<path class="st4" d="M114.75,76.76c-0.75,0.45-1.24,0.98-1.64,0.91c-0.42-0.07-0.74-0.69-1.11-1.08c0.4-0.32,0.81-0.9,1.21-0.9
				C113.64,75.69,114.06,76.25,114.75,76.76z"/>
			<path class="st4" d="M118.43,304.09c0,0.83-0.67,1.5-1.5,1.5c-0.83,0-1.49-0.67-1.49-1.5c0-0.82,0.67-1.49,1.49-1.49
				C117.76,302.59,118.43,303.26,118.43,304.09z"/>
			<path class="st4" d="M33.48,235.12c0,1.12-0.91,2.04-2.04,2.04c-1.12,0-2.04-0.91-2.04-2.04c0-1.13,0.91-2.04,2.04-2.04
				C32.57,233.08,33.48,233.99,33.48,235.12z"/>
			<path class="st4" d="M89.57,153.27c0,1.13-0.91,2.04-2.04,2.04c-1.12,0-2.03-0.91-2.03-2.04c0-1.13,0.91-2.03,2.03-2.03
				C88.66,151.24,89.57,152.15,89.57,153.27z"/>
			<path class="st4" d="M161.58,118.55c0,1.12-0.91,2.04-2.04,2.04c-1.13,0-2.04-0.92-2.04-2.04c0-1.13,0.91-2.04,2.04-2.04
				C160.67,116.52,161.58,117.43,161.58,118.55z"/>
			<path class="st4" d="M114.75,76.42c0,0.85-0.69,1.55-1.55,1.55c-0.85,0-1.55-0.7-1.55-1.55c0-0.86,0.7-1.55,1.55-1.55
				C114.06,74.87,114.75,75.56,114.75,76.42z"/>
			<path class="st4" d="M201.91,38.08c0,0.86-0.7,1.55-1.55,1.55c-0.86,0-1.55-0.69-1.55-1.55c0-0.85,0.69-1.55,1.55-1.55
				C201.21,36.53,201.91,37.23,201.91,38.08z"/>
			<path class="st4" d="M242.24,57.31c0,0.85-0.69,1.55-1.55,1.55c-0.86,0-1.55-0.7-1.55-1.55c0-0.86,0.7-1.55,1.55-1.55
				C241.55,55.76,242.24,56.45,242.24,57.31z"/>
			<path class="st4" d="M357.64,33.6c0,0.63-0.52,1.14-1.15,1.14c-0.63,0-1.14-0.51-1.14-1.14c0-0.63,0.51-1.14,1.14-1.14
				C357.12,32.46,357.64,32.97,357.64,33.6z"/>
			<path class="st4" d="M383.1,99.57c0,1.14-0.93,2.07-2.07,2.07c-1.14,0-2.07-0.93-2.07-2.07c0-1.14,0.93-2.07,2.07-2.07
				C382.17,97.5,383.1,98.43,383.1,99.57z"/>
			<path class="st4" d="M253.71,124.04c0,1.13-0.91,2.04-2.04,2.04c-1.12,0-2.04-0.91-2.04-2.04c0-1.12,0.91-2.04,2.04-2.04
				C252.8,122.01,253.71,122.92,253.71,124.04z"/>
			<path class="st4" d="M102.56,370.56c0,0.77-0.62,1.39-1.38,1.39c-0.76,0-1.38-0.62-1.38-1.39c0-0.77,0.62-1.38,1.38-1.38
				C101.94,369.17,102.56,369.79,102.56,370.56z"/>
			<path class="st4" d="M242.18,381.3c0,0.63-0.52,1.15-1.15,1.15c-0.64,0-1.15-0.52-1.15-1.15c0-0.64,0.52-1.15,1.15-1.15
				C241.66,380.15,242.18,380.66,242.18,381.3z"/>
			<path class="st4" d="M242.44,288.3c0,0.78-0.63,1.4-1.41,1.4c-0.78,0-1.41-0.62-1.41-1.4c0-0.78,0.63-1.41,1.41-1.41
				C241.8,286.88,242.44,287.52,242.44,288.3z"/>
			<path class="st4" d="M389.6,278.36c0,0.78-0.64,1.41-1.41,1.41c-0.78,0-1.41-0.63-1.41-1.41c0-0.78,0.63-1.41,1.41-1.41
				C388.96,276.94,389.6,277.58,389.6,278.36z"/>
		</g>
		<g>
			<path d="M178.85,387.33l-0.37,3.31l-1.05,0.7l1.26-10.57l1.22-0.82l4.08,7l-1.08,0.73l-1.28-2.2L178.85,387.33z M181.27,384.72
				l-1.17-2.02c-0.27-0.46-0.47-0.9-0.66-1.33l-0.02,0.02c-0.03,0.6-0.08,1.22-0.14,1.86l-0.36,3.06L181.27,384.72z"/>
			<path d="M185.37,376.69l1.09-0.55l1.25,7.84l3.6-1.81l0.15,0.95l-4.69,2.35L185.37,376.69z"/>
			<path d="M194.03,372.66l1.4,8.79l-1.12,0.47l-1.4-8.79L194.03,372.66z"/>
			<path d="M206,373.73c-0.26-1.2-0.58-2.65-0.74-3.75l-0.04,0.01c-0.14,1.13-0.34,2.34-0.6,3.69l-0.91,4.76l-0.88,0.28l-2.12-3.73
				c-0.62-1.11-1.17-2.13-1.59-3.09l-0.03,0.01c0.15,1.1,0.32,2.6,0.45,3.94l0.36,3.84l-1.11,0.35l-0.77-8.99l1.48-0.46l2.21,3.77
				c0.55,0.97,1.01,1.83,1.38,2.68l0.04-0.01c0.09-0.96,0.25-2.02,0.48-3.26l0.92-4.75l1.48-0.47l1.96,8.61l-1.13,0.36L206,373.73z"
				/>
			<path d="M215.64,371.3l-3.59,0.73l0.51,3.17l4-0.81l0.15,0.95l-5.19,1.05l-1.4-8.79l4.99-1.01l0.15,0.95l-3.8,0.77l0.44,2.78
				l3.59-0.73L215.64,371.3z"/>
			<path d="M220.01,374.87l-1.4-8.79l1.32-0.19l3.7,4.02c0.86,0.93,1.54,1.78,2.13,2.62l0.03-0.02c-0.3-1.16-0.5-2.22-0.71-3.59
				l-0.59-3.68l1.14-0.16l1.4,8.79l-1.22,0.17l-3.68-4.04c-0.81-0.89-1.59-1.8-2.21-2.69l-0.04,0.02c0.25,1.1,0.44,2.15,0.68,3.61
				l0.6,3.76L220.01,374.87z"/>
			<path d="M231.4,365.36l-2.85,0.34l-0.15-0.96l6.93-0.83l0.15,0.96l-2.86,0.34l1.25,7.82l-1.22,0.15L231.4,365.36z"/>
			<path d="M246.42,367.04c0.48,3.03-1.22,4.85-3.61,5.12c-2.47,0.28-4.5-1.33-4.92-3.99c-0.44-2.79,1.11-4.82,3.61-5.1
				C244.05,362.78,246,364.43,246.42,367.04z M239.17,368c0.3,1.88,1.65,3.44,3.56,3.23c1.92-0.21,2.74-1.99,2.42-3.99
				c-0.28-1.75-1.54-3.47-3.56-3.24C239.59,364.22,238.86,366.07,239.17,368z"/>
			<path d="M250.05,369.8c0.59,0.25,1.43,0.43,2.26,0.33c1.24-0.14,1.86-0.83,1.72-1.72c-0.13-0.82-0.71-1.23-2.04-1.55
				c-1.61-0.34-2.67-0.98-2.87-2.22c-0.22-1.37,0.83-2.52,2.65-2.72c0.96-0.11,1.69,0.02,2.14,0.2l-0.19,0.96
				c-0.33-0.12-1-0.32-1.84-0.22c-1.28,0.14-1.65,0.91-1.56,1.51c0.13,0.82,0.77,1.16,2.13,1.49c1.68,0.4,2.6,1.02,2.8,2.31
				c0.22,1.36-0.67,2.65-2.88,2.9c-0.9,0.1-1.93-0.04-2.48-0.3L250.05,369.8z"/>
			<path d="M274.87,367.9c-0.41,0.27-1.26,0.59-2.4,0.75c-2.64,0.35-4.87-0.95-5.33-3.83c-0.44-2.75,1.25-4.88,4.15-5.27
				c1.16-0.16,1.94-0.02,2.28,0.09l-0.14,0.96c-0.49-0.15-1.17-0.22-1.94-0.11c-2.19,0.29-3.44,1.8-3.07,4.11
				c0.34,2.15,1.88,3.36,4.16,3.06c0.73-0.1,1.46-0.34,1.91-0.63L274.87,367.9z"/>
			<path d="M285.12,362.04c0.48,3.03-1.21,4.94-3.59,5.31c-2.46,0.39-4.47-1.14-4.9-3.8c-0.44-2.79,1.1-4.9,3.59-5.29
				C282.76,357.85,284.7,359.43,285.12,362.04z M277.91,363.31c0.3,1.88,1.65,3.39,3.54,3.09c1.91-0.3,2.72-2.12,2.4-4.12
				c-0.28-1.75-1.54-3.42-3.54-3.11C278.32,359.49,277.61,361.38,277.91,363.31z"/>
			<path d="M289.11,365.96l-1.4-8.79l1.31-0.25l3.68,3.88c0.85,0.9,1.54,1.72,2.12,2.54l0.03-0.02c-0.3-1.15-0.5-2.22-0.71-3.59
				l-0.59-3.68l1.13-0.22l1.4,8.79l-1.21,0.23l-3.65-3.9c-0.8-0.85-1.58-1.74-2.2-2.6l-0.04,0.02c0.25,1.1,0.44,2.15,0.67,3.61
				l0.6,3.76L289.11,365.96z"/>
			<path d="M306.79,361.8c-0.5,0.31-1.5,0.85-2.74,1.15c-1.39,0.33-2.59,0.26-3.62-0.36c-0.91-0.54-1.58-1.6-1.8-2.97
				c-0.4-2.62,1.17-4.98,4.25-5.7c1.06-0.25,1.93-0.22,2.35-0.13l-0.14,0.99c-0.52-0.1-1.16-0.12-2.09,0.1
				c-2.23,0.52-3.48,2.2-3.13,4.4c0.35,2.23,1.97,3.22,4.11,2.72c0.78-0.18,1.29-0.41,1.54-0.61l-0.42-2.62l-1.87,0.44l-0.15-0.91
				l3.02-0.71L306.79,361.8z"/>
			<path d="M314.36,355.79l-3.52,1.01l0.51,3.17l3.92-1.12l0.15,0.95l-5.09,1.46l-1.4-8.79l4.89-1.4l0.15,0.95l-3.72,1.07l0.44,2.78
				l3.52-1.01L314.36,355.79z"/>
			<path d="M317.2,350l1.15-0.39l1.25,7.84l3.81-1.3l0.15,0.95l-4.96,1.7L317.2,350z"/>
			<path d="M327.44,352.65l-0.46,3.14l-1.16,0.49l1.55-10.03l1.35-0.57l4.37,7.55l-1.2,0.5l-1.37-2.37L327.44,352.65z
				 M330.15,350.57l-1.26-2.17c-0.28-0.49-0.5-0.96-0.71-1.41l-0.03,0.01c-0.05,0.58-0.1,1.17-0.19,1.77l-0.45,2.9L330.15,350.57z"
				/>
			<path d="M334.55,343.21c0.64-0.45,1.4-0.95,2.25-1.4c1.54-0.82,2.7-1.03,3.54-0.7c0.86,0.32,1.45,1.11,1.68,2.53
				c0.23,1.44,0,2.83-0.65,4.06c-0.65,1.24-1.86,2.37-3.48,3.23c-0.76,0.41-1.41,0.71-1.97,0.94L334.55,343.21z M336.86,350.4
				c0.28-0.09,0.68-0.29,1.1-0.51c2.3-1.23,3.32-3.25,2.95-5.62c-0.32-2.08-1.64-2.8-3.91-1.59c-0.55,0.3-0.97,0.57-1.24,0.79
				L336.86,350.4z"/>
			<path d="M351.46,337.38c0.48,3.02-0.88,5.76-2.85,7.14c-2.04,1.43-3.76,0.63-4.18-2.03c-0.44-2.79,0.79-5.68,2.85-7.13
				C349.39,333.89,351.05,334.78,351.46,337.38z M345.49,341.72c0.3,1.88,1.46,2.94,3.03,1.84c1.58-1.11,2.21-3.39,1.89-5.38
				c-0.28-1.75-1.37-3.01-3.03-1.85C345.73,337.48,345.18,339.79,345.49,341.72z"/>
			<path d="M354.55,338.69c0.51,0.01,1.21-0.17,1.91-0.63c1.04-0.69,1.55-1.7,1.4-2.59c-0.13-0.82-0.62-1.01-1.76-0.77
				c-1.36,0.34-2.27,0.12-2.47-1.12c-0.22-1.37,0.63-3.06,2.16-4.07c0.8-0.53,1.42-0.71,1.81-0.72l-0.13,1.11
				c-0.28,0.01-0.85,0.1-1.56,0.57c-1.07,0.71-1.36,1.7-1.27,2.3c0.13,0.82,0.67,0.91,1.83,0.66c1.42-0.31,2.21-0.04,2.42,1.25
				c0.22,1.36-0.49,3.12-2.35,4.35c-0.76,0.5-1.62,0.8-2.09,0.77L354.55,338.69z"/>
		</g>
	</g>
	<g>
		<path class="st8" d="M64.69,278.59c-3.47-6.5-5.28-13.4-5.13-20.81c0.07-3.4-0.12-6.81-0.3-10.22c-0.15-2.78-0.25-5.54,0.74-8.21
			c0.08-0.2,0.17-0.41,0.16-0.62c-0.28-5.89,1.99-11.26,3.34-16.83c1.77-7.31,1.59-14.78,0.82-22.23c-0.29-2.75-0.49-5.53-0.55-8.29
			c-0.06-2.81,0.49-5.52,2.01-7.95c4.18-6.7,6.48-14.09,7.93-21.78c0.06-0.31,0.15-0.6,0.68-0.89c0,1.02,0.16,2.06-0.02,3.04
			c-1.17,6.33-2.99,12.55-6.37,17.99c-3.24,5.2-3.57,10.53-2.88,16.26c1.16,9.59,1,19.07-2.06,28.4c-0.92,2.79-1.24,5.82-1.53,8.77
			c-0.71,7.31-1.14,14.64-0.94,22.01c0.14,5.39,0.81,10.59,2.91,15.59c0.77,1.82,1.23,3.77,1.84,5.66
			C65.12,278.51,64.91,278.54,64.69,278.59z"/>
		<path class="st8" d="M280.34,44.61c3.51-0.77,7.17-1.28,10.79-0.31c4.21,1.13,8.35,2.53,12.55,3.71c1.52,0.44,3.12,0.67,4.7,0.87
			c2.29,0.28,4.6,0.45,6.99,0.67c-0.14-0.21-0.28-0.62-0.56-0.78c-4.84-2.82-9.31-6.36-15.35-6.6c-4.46-0.18-8.89-0.98-13.35-1.42
			c-1.53-0.15-3.08-0.02-4.68-0.62c1.31-0.13,2.63-0.46,3.92-0.36c3.72,0.28,7.42,0.74,11.13,1.12c1.16,0.12,2.34,0.44,3.49,0.35
			c3.84-0.28,7.09,1.11,10.15,3.21c2.11,1.45,4.37,2.7,6.33,4.33c1.85,1.54,3.38,3.45,5.06,5.2c-0.14,0.18-0.28,0.36-0.42,0.55
			c-0.3-0.14-0.67-0.2-0.9-0.42c-2.84-2.68-6.45-3.5-10.11-4.15c-2.71-0.49-5.46-0.79-8.15-1.39c-2.8-0.63-5.51-1.75-8.33-2.25
			C289.2,45.57,284.76,45.16,280.34,44.61z"/>
		<path class="st8" d="M112.63,85.18c-2.27,1.69-5.14,2.08-7.93,2.49c-9.05,1.34-19.2,7.82-24.28,15.57
			c-1.46,2.22-3.13,4.31-4.74,6.42c-0.34,0.44-0.88,0.72-1.61,0.78c2.66-3.8,5.04-7.83,8.04-11.34c4.78-5.63,11.24-9.03,17.79-12.2
			c0.84-0.4,1.85-0.48,2.79-0.59C106.01,85.9,109.35,85.55,112.63,85.18z"/>
		<path class="st8" d="M49.97,313.5c-15.21-10.39-18.07-23.18-11.79-39.16c-0.18,1.41-0.17,2.88-0.55,4.23
			c-3.41,11.86-0.81,22.04,8.26,30.52C47.34,310.46,48.61,312.03,49.97,313.5z"/>
		<path class="st8" d="M381.26,106c-4.51-1.1-4.73-5.7-7.16-8.98c1.59-0.02,1.72,1.12,2.23,1.76c0.51,0.65,0.97,1.34,1.57,2.18
			c1.2-1.19,0.86-2.2,0.12-3.17c-1.98-2.61-3.99-5.19-6.27-8.14c0.87,0.44,1.58,0.61,2.01,1.05c1.63,1.67,3.18,3.42,4.73,5.17
			c0.35,0.39,0.71,0.85,0.84,1.34c0.38,1.43,0.55,2.92,0.99,4.33c0.43,1.36,1.09,2.64,1.65,3.96
			C381.74,105.68,381.5,105.84,381.26,106z"/>
		<path class="st8" d="M98.18,102.15c1.95-2.74,3.81-5.55,5.91-8.18c0.96-1.19,2.25-2.39,3.65-2.91c2.95-1.1,6.06-1.75,9.35-2.08
			c-0.95,0.45-1.85,1.07-2.85,1.31c-5.07,1.19-9.23,3.45-11.8,8.32c-0.83,1.57-2.64,2.62-4,3.91
			C98.36,102.38,98.27,102.27,98.18,102.15z"/>
		<path class="st8" d="M59.18,153.8c0.47-1.68,0.77-3.44,1.45-5.02c1.25-2.92,2.77-5.73,4.08-8.63c1.04-2.3,1.95-4.66,3.36-6.88
			c-0.53,1.83-0.91,3.73-1.64,5.48c-0.97,2.35-2.24,4.57-3.3,6.88c-1.25,2.72-2.4,5.49-3.6,8.24
			C59.41,153.85,59.3,153.83,59.18,153.8z"/>
		<path class="st8" d="M39.17,182.34c0.72-0.95,1.31-2.06,2.19-2.82c2.58-2.22,3.66-5.11,4.2-8.33c0.24-1.43,0.61-2.84,1.04-4.22
			c0.55,6.52-2.25,11.53-6.88,15.71C39.54,182.57,39.35,182.46,39.17,182.34z"/>
		<path class="st8" d="M216.99,73.72c1.47-1.18,3.16-1.71,4.93-1.6c2.05,0.13,4.1,0.55,6.77,0.92
			C224.45,74.2,220.71,73.65,216.99,73.72z"/>
		<path class="st8" d="M185.41,52.05c3.51-0.66,7.01-1.32,10.52-1.99c0.05,0.28,0.1,0.55,0.15,0.83c-3.57,0.66-7.13,1.32-10.69,1.98
			C185.4,52.6,185.41,52.33,185.41,52.05z"/>
		<path class="st8" d="M85.77,110.72c2.16-3.61,5.63-5.4,9.36-7.39c-0.11,0.63-0.07,0.89-0.17,0.97
			C91.91,106.45,88.84,108.58,85.77,110.72z"/>
		<path class="st8" d="M278.72,41.65c-3.09,1.8-6.38,0.2-9.6,0.41C272.2,40.46,275.53,42.25,278.72,41.65z"/>
		<path class="st8" d="M75.95,120.18c-2.09,2.93-3.99,5.6-5.81,8.15C70.26,125.89,72.5,122.62,75.95,120.18z"/>
		<g>
			<path class="st8" d="M155.03,412.18c0.55,0.09,1.15,0.08,1.64,0.31c0.91,0.41,1.78,0.93,2.64,1.45
				c5.52,3.41,11.34,6.03,17.83,7.03c2.07,0.33,4.14,0.88,6.12,1.59c3.68,1.32,7.44,1.44,11.29,1.35
				c5.12-0.12,10.25,0.06,15.37-0.01c2.09-0.03,4.22-0.16,6.26-0.58c6.8-1.39,13.5-1.51,20.29,0.32c6.11,1.66,12.32,2.86,18.76,2.33
				c2.99-0.25,6.02,0.09,9.03-0.02c2.89-0.11,5.8-0.31,8.66-0.74c3.57-0.55,7.09-1.45,10.66-2.08c1.96-0.34,3.98-0.41,5.97-0.64
				c1.5-0.17,2.99-0.37,4.47-0.62c3.85-0.66,7.77-1.11,11.52-2.11c3.56-0.95,6.98-2.47,10.43-3.82c0.5-0.2,0.84-0.84,1.24-1.29
				c3.82-4.36,8.38-7.18,14.22-8.39c5.01-1.04,9.79-3.14,13.26-7.27c4.21-5.02,8.81-9.57,14.02-13.62c3.05-2.37,5.31-5.74,7.95-8.63
				c0.85-0.93,1.61-2.07,3.12-1.99c0.06,0.28,0.19,0.52,0.13,0.59c-4.67,5.1-8.79,10.72-14.55,14.79c-2.08,1.47-3.92,3.47-5.43,5.54
				c-4.27,5.84-9.96,9.61-16.68,11.83c-2.84,0.93-5.88,1.2-8.49,2.87c-2.03,1.3-3.82,2.82-5.61,4.45c-2.16,1.96-4.9,3.66-7.69,4.48
				c-7.7,2.27-15.59,3.76-23.6,4.65c-4.48,0.5-8.9,1.57-13.31,2.55c-3.75,0.83-7.48,1.35-11.36,1.13c-3.1-0.17-6.23-0.01-9.33,0.15
				c-5.9,0.32-11.62-0.88-17.28-2.2c-5.33-1.24-10.54-2.27-16.07-1.15c-3.22,0.65-6.6,0.65-9.91,0.67
				c-7.14,0.06-14.27-0.05-21.41-0.09c-0.5,0-1.03,0.04-1.5-0.09c-8.19-2.35-16.79-3.33-24.43-7.46c-2.81-1.52-5.6-3.06-8.4-4.58
				C154.91,412.64,154.97,412.41,155.03,412.18z"/>
			<path class="st8" d="M290.2,417.1c-4,1.74-7.8,3.22-11.98,3.38c-3.01,0.12-6.02,0.14-9.03,0.18c-2.51,0.04-5,0.12-7.39-1
				c-0.86-0.4-1.97-0.37-2.96-0.38c-2.21-0.04-4.44-0.16-6.63,0.09c-5.43,0.62-10.6-0.39-15.69-2.14c-0.75-0.26-1.54-0.51-2.22-0.91
				c-4.65-2.66-9.73-3.71-15.01-3.88c-5.32-0.17-10.64-0.23-15.96-0.41c-2.77-0.09-5.37,0.4-7.9,1.57
				c-2.76,1.27-5.64,2.18-8.75,1.54c-1.13-0.23-2.21-0.65-3.31-0.98c0.05-0.27,0.11-0.53,0.16-0.8c0.85,0.11,1.72,0.14,2.57,0.32
				c2.87,0.6,5.6,0.31,8.14-1.21c2.59-1.53,5.42-2.11,8.39-2.02c5.83,0.18,11.65,0.42,17.47,0.6c4.78,0.15,9.27,1.32,13.67,3.28
				c5.44,2.42,11.13,4.08,17.22,3.55c2.2-0.19,4.42-0.3,6.63-0.24c1.79,0.05,3.56,0.44,5.35,0.65c2.57,0.3,5.15,0.63,7.74,0.8
				c1.5,0.1,3.02-0.23,4.51-0.12c4.32,0.3,8.39-0.53,12.3-2.32C288.22,416.33,289.09,415.58,290.2,417.1z"/>
			<path class="st8" d="M397.99,332.69c-0.74,3.79-2.83,6.76-4.28,10.02c-1.04-1.67,0.49-3.02,0.18-4.91
				c-5.7,6.76-7.74,15.38-13.03,22.71c0.04-0.87-0.03-1.18,0.08-1.4c1.57-3.36,3-6.8,4.81-10.02c2.7-4.8,5.63-9.48,8.58-14.14
				C395.02,333.85,395.92,332.62,397.99,332.69z"/>
			<path class="st8" d="M300.93,412.92c0.48-0.3,0.95-0.63,1.45-0.89c5.18-2.69,10.62-4.65,16.37-5.76
				c4.45-0.86,8.06-3.42,11.68-5.94c0.84-0.59,1.5-1.67,3.2-1.25c-0.57,0.73-0.91,1.41-1.46,1.83c-4.57,3.45-9.35,6.25-15.21,7.32
				c-4.17,0.77-8.1,2.81-12.14,4.27c-1.17,0.42-2.35,0.81-3.52,1.22C301.18,413.45,301.06,413.19,300.93,412.92z"/>
			<path class="st8" d="M392.73,345.45c0.33,3.45-1.73,9.11-4.28,11.77C390.38,348.27,391,346.58,392.73,345.45z"/>
			<path class="st8" d="M180.64,412.78c-1.37-0.18-2.72-0.42-3.39-2.19c1.21,0.5,2.41,1,3.62,1.51
				C180.79,412.33,180.72,412.55,180.64,412.78z"/>
			<path class="st8" d="M293.56,415.11c1.61-0.48,2.55-0.76,3.92-1.17C296.28,415.6,296.28,415.6,293.56,415.11z"/>
		</g>
		<path class="st8" d="M117.84,81.18c0.7-0.57,1.41-1.15,2.12-1.73c0.12,0.14,0.24,0.27,0.35,0.41c-0.69,0.58-1.38,1.16-2.07,1.74
			C118.1,81.47,117.97,81.33,117.84,81.18z"/>
		<path class="st8" d="M47.76,158.12c0.18-0.64,0.37-1.29,0.55-1.93c0.15,0.04,0.3,0.08,0.45,0.12c-0.17,0.65-0.35,1.3-0.52,1.94
			C48.08,158.2,47.92,158.16,47.76,158.12z"/>
	</g>
</g>
</svg>
