<svg width="16" height="16" viewBox="0 0 16 16" fill="none" xmlns="http://www.w3.org/2000/svg">
<path d="M0 6C0 4.89688 0.896875 4 2 4H2.05C2.28125 2.85938 3.29062 2 4.5 2C4.96875 2 5.40625 2.12812 5.77812 2.35C6.19375 1.55 7.03438 1 8 1C8.96562 1 9.80625 1.55 10.2219 2.35C10.5938 2.12812 11.0312 2 11.5 2C12.7094 2 13.7187 2.85938 13.95 4H14C15.1031 4 16 4.89688 16 6C16 6.36562 15.9031 6.70625 15.7312 7H0.26875C0.096875 6.70625 0 6.36562 0 6ZM0 8.85625C0 8.38437 0.384375 8 0.85625 8H15.1406C15.6125 8 15.9969 8.38437 15.9969 8.85625C15.9969 11.0594 14.6094 12.9406 12.6625 13.6719L12.6094 14.125C12.5469 14.625 12.1219 15 11.6156 15H4.38125C3.87812 15 3.45 14.625 3.3875 14.125L3.33125 13.675C1.3875 12.9406 0 11.0594 0 8.85625Z" fill="black"/>
</svg>
