<svg width="16" height="16" viewBox="0 0 16 16" fill="none" xmlns="http://www.w3.org/2000/svg">
<path fill-rule="evenodd" clip-rule="evenodd" d="M15.4554 2.76123C15.6312 2.43398 15.2327 2.53323 15.2327 2.53323C15.2327 2.53323 12.5759 5.08348 12.2067 4.77098C11.8374 4.45848 14.8079 2.01423 14.4564 1.55748C14.1312 1.13173 11.5214 4.17123 11.2079 3.79998C10.8974 3.42948 13.4427 0.769234 13.4427 0.769234C13.4427 0.769234 13.5394 0.368734 13.2147 0.544234C9.2129 2.69623 8.70315 4.70248 8.70315 4.70248C8.70315 4.70248 8.5654 5.09323 8.8644 5.39523C8.89365 5.42148 1.5634 12.7102 0.582155 13.6942C0.104655 14.1712 1.85665 15.8945 2.33115 15.4175C3.31265 14.4335 10.5872 7.09173 10.6134 7.11898C10.9152 7.42023 11.3049 7.28198 11.3049 7.28198C11.3049 7.28198 13.3079 6.77073 15.4554 2.76123Z" fill="#012B0F"/>
<path fill-rule="evenodd" clip-rule="evenodd" d="M8.00718 10.1267C9.95793 12.0817 13.2467 15.3765 13.2467 15.3765C13.2467 15.3765 14.6822 14.9067 14.8844 13.6942L9.66568 8.46524C9.11233 9.01856 8.5595 9.5724 8.00718 10.1267ZM5.44018 8.43224C6.13991 7.73306 6.83883 7.03306 7.53693 6.33224L1.86493 0.649488C1.86493 0.649488 1.76243 0.541988 1.53668 0.768738C1.08843 1.21549 0.221177 4.06199 3.89793 7.74424C4.48068 8.32824 4.98768 8.40924 5.44018 8.43224Z" fill="#012B0F"/>
</svg>
