<svg width="28" height="28" viewBox="0 0 28 28" fill="none" xmlns="http://www.w3.org/2000/svg">
<path d="M0.476562 3.35948C0.476562 3.83948 0.875062 4.24998 1.34406 4.24998H5.30456L7.17956 17.117C7.42606 18.781 8.30456 19.824 10.0041 19.824H23.6801C24.1366 19.824 24.5351 19.449 24.5351 18.9455C24.5351 18.4415 24.1366 18.0665 23.6801 18.0665H10.2031C9.53506 18.0665 9.12506 17.5975 9.01956 16.883L8.83206 15.6525H23.7031C25.4141 15.6525 26.2931 14.5975 26.5391 12.922L27.4766 6.72248C27.5017 6.5753 27.5174 6.42666 27.5236 6.27748C27.5236 5.71498 27.1016 5.32798 26.4571 5.32798H7.33206L7.09756 3.83998C6.98056 2.93748 6.65256 2.47998 5.45756 2.47998H1.34356C0.875062 2.47998 0.476562 2.89048 0.476562 3.35948ZM9.02006 23.621C9.02006 24.6875 9.86406 25.5195 10.9301 25.5195C11.18 25.5215 11.4278 25.4739 11.659 25.3792C11.8903 25.2845 12.1004 25.1447 12.2771 24.968C12.4538 24.7913 12.5936 24.5812 12.6883 24.3499C12.7829 24.1187 12.8306 23.8709 12.8286 23.621C12.8297 23.3714 12.7814 23.124 12.6863 22.8931C12.5913 22.6623 12.4515 22.4525 12.275 22.276C12.0985 22.0995 11.8888 21.9597 11.6579 21.8647C11.4271 21.7697 11.1797 21.7214 10.9301 21.7225C9.86406 21.7225 9.02006 22.5665 9.02006 23.621ZM19.9771 23.621C19.9771 24.6875 20.8326 25.5195 21.8871 25.5195C22.9536 25.5195 23.7971 24.6875 23.7971 23.621C23.7971 22.566 22.9536 21.7225 21.8871 21.7225C20.8326 21.7225 19.9771 22.5665 19.9771 23.621Z" fill="#012B0F"/>
</svg>
