<svg width="230" height="230" viewBox="0 0 230 230" fill="none" xmlns="http://www.w3.org/2000/svg">
<path fill-rule="evenodd" clip-rule="evenodd" d="M183.626 100.34C181.541 99.5447 180.001 99.6841 177.989 99.1033C171.494 97.2331 172.107 97.8139 172.506 95.2699C172.935 92.5634 174.72 85.826 174.322 82.3121C173.451 81.5048 169.703 79.8495 168.452 80.5581C167.391 81.1621 166.213 86.5636 165.974 87.4348C164.208 93.998 161.675 106.096 159.816 112.921C154.873 112.189 150.702 111.469 150.414 111.399C146.022 110.354 149.666 102.344 151.156 96.1179C152.15 91.9942 155.431 78.5369 157.394 70.1384C159.197 62.5124 160.828 55.653 162.975 49.6649C163.729 47.574 164.373 45.4308 165.355 43.4386C166.759 40.6043 168.716 38.1184 172.291 37.555C173.573 37.3518 174.941 37.5725 176.272 37.6944C176.879 37.7467 177.462 38.0313 178.063 38.1823C191.918 39.1174 189.729 47.4462 188.821 57.4303C188.533 60.6422 188.097 65.2596 187.858 69.1336C187.551 73.9717 186.772 79.0247 184.902 100.067C184.711 100.939 184.362 100.445 183.626 100.34ZM178.915 50.5245C178.308 50.4316 175.971 49.996 175.358 49.9088C173.261 57.4768 171.568 65.2364 169.482 72.7346C176.53 74.0937 176.757 76.9455 177.082 69.9758C177.321 64.7369 177.83 61.072 178.192 56.9715C178.413 54.503 178.805 53.0045 178.915 50.5245Z" fill="black" stroke="black" stroke-miterlimit="10" stroke-linecap="round" stroke-linejoin="round"/>
<path fill-rule="evenodd" clip-rule="evenodd" d="M97.244 115.639C94.2448 114.774 92.4907 113.385 89.1112 112.41C87.9582 113.618 84.5051 116.4 82.8307 118.049C77.5438 123.253 67.2643 123.852 64.216 114.268C62.9464 110.737 63.2408 104.83 64.0504 101.397C66.9331 89.1715 68.9632 78.868 72.6371 66.822C73.2136 64.9402 73.9926 62.5937 76.7955 61.8793C79.4206 61.2114 83.1312 61.6063 82.9963 64.1038C82.8307 67.2111 81.8678 71.5904 80.7454 77.6657C78.7766 88.2887 76.5134 98.8652 74.3851 109.465C74.0232 111.271 73.7472 113.101 73.3792 115.203C78.0222 114.942 79.1752 111.858 80.2179 109.204C83.119 101.821 85.6152 94.2942 88.3691 86.8657C92.276 76.3182 96.1952 65.7707 100.335 55.2988C100.875 53.9222 102.641 52.2321 104.027 52.0578C106.738 51.7268 109.695 53.9861 109.799 56.6346C109.965 61.0023 109.278 64.9924 108.658 69.2788C106.444 84.5657 101.942 97.3435 97.6672 114.239C97.471 114.983 97.2195 115.709 97.244 115.639Z" fill="black" stroke="black" stroke-miterlimit="10" stroke-linecap="round" stroke-linejoin="round"/>
<path fill-rule="evenodd" clip-rule="evenodd" d="M147.476 36.3876C153.916 36.8116 157.829 36.9626 157.167 42.6429C156.173 51.1808 150.181 76.9106 149.261 80.8194C148.494 84.072 146.93 89.1424 146.378 92.0232C145.121 98.5864 143.962 103.883 142.41 110.4C141.95 112.317 141.073 115.935 140.521 117.846C137.019 116.905 134.259 116.528 131.266 115.25C129.653 114.564 129.07 115.941 128.542 114.35C127.046 109.871 126.506 101.775 125.365 97.1924C125.089 96.0715 122.385 89.7581 122.109 88.5326C122.507 92.6331 117.325 107.937 114.062 124.502C110.302 121.952 106.659 119.478 103.617 117.41C101.997 115.796 102.427 115.087 102.764 113.815C105.518 103.413 107.769 92.8886 110.228 82.4167C111.798 75.7258 113.307 69.0232 115.117 62.3904C116.263 58.1854 117.288 53.5621 123.857 54.2243C124.507 54.2881 128.929 54.6366 128.996 60.8513C129.426 64.0689 134.13 89.6652 134.835 90.9255C135.755 89.2296 137.215 79.7624 137.491 78.5717C140.435 65.7939 143.275 52.9987 146.182 40.2152C146.458 38.978 146.998 37.7874 147.476 36.3876Z" fill="black" stroke="black" stroke-miterlimit="10" stroke-linecap="round" stroke-linejoin="round"/>
<path fill-rule="evenodd" clip-rule="evenodd" d="M210.919 164.119C208.895 163.451 207.951 163.312 206.006 162.853C199.732 161.36 200.382 161.139 200.64 158.706C200.916 156.11 201.731 150.696 201.186 147.374C200.315 146.648 196.665 145.231 195.512 145.963C194.531 146.584 193.672 151.777 193.488 152.613C192.133 158.938 191.906 164.647 190.471 171.222C187.968 170.972 183.939 170.653 181.449 170.188C177.217 169.381 178.701 167.517 179.817 161.523C180.553 157.556 183.013 144.604 184.466 136.525C185.809 129.189 187.018 122.585 188.772 116.789C189.379 114.768 189.888 112.7 190.728 110.754C191.924 107.99 193.666 105.544 197.039 104.847C198.254 104.598 199.566 104.749 200.836 104.795C201.413 104.818 201.989 105.068 202.566 105.184C215.801 105.469 214.127 113.496 213.759 123.038C213.636 126.105 213.452 130.513 213.415 134.225C213.366 138.848 212.876 143.68 212.134 163.794C211.986 164.647 211.631 164.194 210.919 164.119ZM203.982 116.911C203.4 116.853 201.155 116.533 200.566 116.481C198.941 123.782 197.708 131.234 196.095 138.465C202.872 139.446 203.228 142.153 203.191 135.508C203.161 130.513 203.461 127 203.608 123.079C203.7 120.721 204.001 119.275 203.982 116.911Z" fill="black" stroke="black" stroke-miterlimit="10" stroke-linecap="round" stroke-linejoin="round"/>
<path fill-rule="evenodd" clip-rule="evenodd" d="M171.703 106.497C177.854 106.59 181.583 106.549 181.265 111.98C180.78 120.158 177.18 141.009 176.517 144.778C175.965 147.909 174.751 152.805 174.377 155.575C173.537 161.883 172.469 166.942 171.592 173.249C171.316 175.247 171.126 177.774 170.629 179.632C167.244 178.906 164.514 178.558 160.847 177.669C159.209 177.274 158.798 178.43 158.209 176.943C156.547 172.75 155.995 165.803 154.664 161.494C154.339 160.442 151.426 154.565 151.101 153.415C151.702 157.294 147.599 172.105 145.385 188.025C141.668 185.777 138.067 183.593 135.056 181.781C133.425 180.324 133.799 179.621 134.056 178.395C136.117 168.359 137.693 158.241 139.46 148.158C140.594 141.717 141.668 135.264 143.029 128.87C143.894 124.81 144.624 120.361 150.905 120.675C151.524 120.709 155.756 120.826 156.155 126.738C156.737 129.776 162.595 153.908 163.331 155.076C164.116 153.42 164.993 144.337 165.195 143.192C167.311 130.897 168.593 122.498 170.672 110.191C170.869 109.012 171.316 107.85 171.703 106.497Z" fill="black" stroke="black" stroke-miterlimit="10" stroke-linecap="round" stroke-linejoin="round"/>
<path fill-rule="evenodd" clip-rule="evenodd" d="M130.732 124.926C131.873 126.692 133.124 128.266 134.228 130.084C135.406 132.018 134.136 133.086 132.265 133.557C129.377 134.265 131.677 133.656 128.138 134.695C125.739 135.27 127.966 134.765 126.052 135.206C113.675 138.145 116.006 137.576 115.711 144.046C115.632 145.643 115.429 147.241 115.227 149.454C116.251 149.5 122.305 148.704 123.439 148.443C128.978 147.165 127.487 148.64 127.886 151.591C128.101 155.442 127.432 155.163 124.856 155.732C122.74 156.197 120.906 156.203 118.827 156.702C116.294 157.312 113.663 155.749 113.356 159.914C112.902 165.983 111.265 171.344 111.185 178.134C117.643 177.054 123.378 176.095 128.99 175.154C130.83 178.558 128.61 183.111 124.807 184.238C119.416 185.841 112.461 187.949 107.039 189.483C106.61 189.605 106.094 189.645 105.653 189.558C101.194 188.681 97.5507 184.401 98.2683 180.132C99.5563 172.494 102.071 163.428 103.071 153.995C103.549 149.477 104.34 144.377 105.291 139.922C105.469 139.092 105.003 137.768 104.34 137.21C100.642 134.132 101.832 129.787 107.879 128.068C113.927 126.349 115.546 126.767 121.581 125.025C123.384 124.502 122.581 124.566 124.384 124.049C125.077 123.846 126.249 123.311 126.85 123.166C130.051 122.405 129.53 123.05 130.732 124.926Z" fill="black" stroke="black" stroke-miterlimit="10" stroke-linecap="round" stroke-linejoin="round"/>
<path fill-rule="evenodd" clip-rule="evenodd" d="M88.645 187.038C81.009 184.651 78.2674 181.189 79.2733 173.778C81.101 160.274 83.3029 146.817 85.3698 133.342C85.8666 130.118 86.3512 126.889 87.032 123.695C87.4122 121.929 87.0381 118.857 89.9514 119.42C92.3434 119.885 95.4714 121.598 96.2933 123.515C97.6978 126.761 98.4277 130.728 97.8818 134.172C95.3488 150.261 92.2821 166.274 89.4178 182.321C89.148 183.901 88.9026 185.475 88.645 187.038Z" fill="black" stroke="black" stroke-miterlimit="10" stroke-linecap="round" stroke-linejoin="round"/>
<path fill-rule="evenodd" clip-rule="evenodd" d="M46.1594 144.197C42.7677 144.499 38.8178 145.475 36.7325 138.912C36.3645 137.762 38.0205 129.241 38.2168 127.894C39.0693 122.103 44.4482 94.2245 45.6258 89.4503C46.4968 85.9073 50.005 67.4957 51.9677 61.0778C52.3234 59.649 54.7216 59.2773 54.8626 59.4167C57.5184 59.0682 57.8373 59.1843 58.7266 59.5677C66.0682 62.7157 63.3696 68.1288 62.6336 74.3028C60.8488 89.4503 53.5992 125.669 53.0104 129.387C52.6117 131.948 57.4754 129.514 58.2237 129.294C65.1298 127.214 64.2896 127.389 71.2754 125.553C73.7288 124.909 76.2986 124.003 79.488 123.34C78.065 126.889 77.3413 131.245 75.581 133.865C74.3114 135.752 71.9256 137.442 69.6562 138.18C62.2165 140.608 62.3637 140.364 54.8074 142.501C54.4026 142.739 43.3504 144.406 46.1594 144.197Z" fill="black" stroke="black" stroke-miterlimit="10" stroke-linecap="round" stroke-linejoin="round"/>
<path fill-rule="evenodd" clip-rule="evenodd" d="M61.4253 207.691C58.745 207.929 55.617 208.696 53.9733 203.509C53.685 202.597 54.9914 195.86 55.1509 194.797C55.8255 190.215 60.0821 168.161 61.0143 164.386C61.7074 161.581 64.4797 147.026 66.0314 141.944C66.3135 140.811 68.2087 140.521 68.3191 140.631C70.4229 140.358 70.6743 140.451 71.3735 140.753C77.1818 143.245 75.0413 147.525 74.4647 152.41C73.0479 164.392 67.3071 193.049 66.8471 195.988C66.5282 198.009 70.3799 196.087 70.9626 195.912C76.4274 194.269 75.765 194.396 81.285 192.95C83.2293 192.445 85.2594 191.725 87.7863 191.202C86.6639 194.007 86.0874 197.452 84.6951 199.525C83.6893 201.018 81.8063 202.354 80.0093 202.934C74.1213 204.857 74.2378 204.665 68.2639 206.349C67.945 206.541 59.205 207.854 61.4253 207.691Z" fill="black" stroke="black" stroke-miterlimit="10" stroke-linecap="round" stroke-linejoin="round"/>
<path fill-rule="evenodd" clip-rule="evenodd" d="M181.08 99.7712C178.989 98.9697 177.456 99.1091 175.444 98.5341C168.943 96.6639 169.556 97.2389 169.961 94.7008C170.39 92 172.175 85.2568 171.776 81.7429C170.905 80.9414 167.158 79.2803 165.9 79.9889C164.839 80.5987 163.662 85.9944 163.429 86.8715C161.662 93.4346 159.129 105.533 157.271 112.352C154.658 111.962 149.733 111.213 147.868 110.83C143.446 109.924 147.12 101.775 148.617 95.5429C149.61 91.4192 152.892 77.9619 154.848 69.5634C156.658 61.9374 158.283 55.078 160.436 49.0841C161.184 46.9932 161.828 44.85 162.809 42.8578C164.214 40.0235 166.17 37.5376 169.74 36.9684C171.022 36.7652 172.396 36.9859 173.72 37.102C174.328 37.1543 174.91 37.4447 175.511 37.5899C189.367 38.5308 187.177 46.8596 186.269 56.8437C185.981 60.0556 185.546 64.673 185.306 68.5528C185 73.3909 184.221 78.4381 182.35 99.4808C182.166 100.369 181.816 99.8816 181.08 99.7712ZM176.37 49.9553C175.763 49.8624 173.426 49.4268 172.813 49.3396C170.715 56.9076 169.016 64.6614 166.937 72.1654C173.984 73.5245 174.211 76.3763 174.53 69.4124C174.769 64.1735 175.278 60.5086 175.646 56.4081C175.861 53.928 176.26 52.4354 176.37 49.9553Z" fill="#FF7F00"/>
<path fill-rule="evenodd" clip-rule="evenodd" d="M94.6925 115.07C91.6933 114.204 89.9392 112.816 86.5658 111.84C85.4128 113.048 81.9597 115.831 80.2792 117.474C74.9922 122.678 64.7128 123.277 61.6645 113.699C60.3949 110.173 60.6893 104.261 61.4989 100.828C64.3816 88.6023 66.4117 78.2987 70.0856 66.247C70.6621 64.3652 71.441 62.0245 74.244 61.3101C76.869 60.6422 80.5797 61.0313 80.4448 63.5288C80.273 66.6361 79.3162 71.0154 78.1877 77.0907C76.2189 87.7194 73.9557 98.296 71.8274 108.89C71.4656 110.702 71.1896 112.526 70.8216 114.628C75.4645 114.361 76.6114 111.283 77.6602 108.629C80.5674 101.246 83.0576 93.7192 85.8114 86.2849C89.7184 75.7374 93.6376 65.1899 97.7776 54.7179C98.3173 53.3414 100.078 51.6513 101.47 51.477C104.181 51.1402 107.143 53.4111 107.241 56.0538C107.407 60.4215 106.72 64.4116 106.101 68.698C103.886 83.9849 99.3845 96.7626 95.1034 113.658C94.9256 114.413 94.6741 115.145 94.6925 115.07Z" fill="#FF7F00"/>
<path fill-rule="evenodd" clip-rule="evenodd" d="M145.66 35.8243C152.1 36.2483 156.014 36.3935 155.351 42.0738C154.358 50.6175 148.365 76.3414 147.445 80.2561C146.679 83.5086 145.115 88.5791 144.563 91.4541C143.299 98.023 142.14 103.314 140.594 109.831C140.134 111.747 139.834 114.547 139.196 116.469C135.694 115.529 133.903 115.261 130.91 113.984C129.297 113.298 128.714 114.675 128.187 113.089C126.69 108.605 124.684 101.212 123.544 96.6232C123.268 95.5023 120.563 89.1889 120.287 87.9692C120.686 92.0639 115.503 107.374 112.24 123.933C108.48 121.383 104.837 118.909 101.795 116.847C100.176 115.232 100.605 114.524 100.942 113.252C103.696 102.844 105.947 92.3253 108.407 81.8533C109.971 75.1624 111.486 68.4599 113.295 61.827C114.442 57.622 115.466 52.9988 122.029 53.6551C122.679 53.719 127.107 54.0617 127.175 60.2879C127.598 63.5056 132.308 89.1018 133.007 90.3621C133.927 88.6662 135.387 79.1932 135.663 78.0083C138.607 65.2364 141.447 52.4354 144.354 39.6518C144.642 38.4089 145.176 37.2182 145.66 35.8243Z" fill="#FF7F00"/>
<path fill-rule="evenodd" clip-rule="evenodd" d="M208.374 163.55C206.35 162.888 205.399 162.748 203.461 162.284C197.187 160.791 197.837 160.57 198.088 158.137C198.364 155.54 199.186 150.133 198.634 146.805C197.763 146.079 194.114 144.662 192.961 145.394C191.986 146.015 191.121 151.208 190.943 152.05C189.588 158.375 189.361 164.084 187.925 170.659C185.423 170.403 181.387 170.09 178.903 169.625C174.677 168.823 176.156 166.959 177.278 160.965C178.02 156.992 180.473 144.04 181.933 135.961C183.276 128.626 184.485 122.028 186.239 116.225C186.846 114.204 187.349 112.137 188.189 110.197C189.385 107.432 191.127 104.981 194.5 104.29C195.715 104.04 197.033 104.191 198.297 104.243C198.88 104.267 199.444 104.511 200.02 104.633C213.256 104.917 211.582 112.938 211.214 122.481C211.097 125.547 210.913 129.956 210.87 133.667C210.821 138.285 210.33 143.123 209.588 163.23C209.441 164.078 209.085 163.619 208.374 163.55ZM201.437 116.342C200.854 116.284 198.61 115.97 198.027 115.912C196.402 123.207 195.169 130.664 193.556 137.895C200.339 138.877 200.689 141.584 200.652 134.933C200.621 129.938 200.922 126.424 201.069 122.51C201.155 120.152 201.456 118.711 201.437 116.342Z" fill="#FF7F00"/>
<path fill-rule="evenodd" clip-rule="evenodd" d="M169.378 105.196C175.53 105.283 179.265 105.242 178.94 110.679C178.455 118.851 174.861 139.713 174.199 143.477C173.641 146.608 172.433 151.51 172.058 154.274C171.212 160.582 170.396 165.675 169.274 171.948C168.943 173.795 168.808 176.473 168.305 178.337C164.919 177.611 163.208 177.443 160.282 176.368C158.712 175.793 158.234 177.129 157.645 175.648C155.977 171.455 153.671 164.508 152.34 160.204C152.015 159.147 149.101 153.275 148.776 152.125C149.377 155.999 145.274 170.816 143.06 186.736C139.343 184.488 135.743 182.304 132.738 180.492C131.112 179.028 131.486 178.337 131.738 177.106C133.799 167.075 135.375 156.952 137.141 146.869C138.276 140.428 139.349 133.975 140.711 127.58C141.576 123.526 142.299 119.071 148.58 119.385C149.206 119.414 153.431 119.53 153.83 125.449C154.413 128.486 160.27 152.619 161.012 153.786C161.797 152.131 162.674 143.047 162.871 141.903C164.987 129.607 166.269 121.209 168.348 108.902C168.55 107.705 168.998 106.549 169.378 105.196Z" fill="#FF7F00"/>
<path fill-rule="evenodd" clip-rule="evenodd" d="M128.187 125.048C129.327 126.819 130.579 128.388 131.683 130.206C132.86 132.14 131.585 133.208 129.72 133.679C126.831 134.393 129.131 133.778 125.592 134.817C123.194 135.392 125.421 134.887 123.507 135.328C111.13 138.267 113.467 137.698 113.166 144.168C113.093 145.771 112.884 147.363 112.682 149.581C113.712 149.628 119.759 148.832 120.894 148.571C126.433 147.293 124.942 148.774 125.341 151.713C125.555 155.569 124.887 155.291 122.311 155.854C120.195 156.325 118.361 156.325 116.282 156.824C113.755 157.434 111.118 155.871 110.811 160.036C110.357 166.111 108.719 171.466 108.64 178.256C115.098 177.176 120.833 176.217 126.445 175.276C128.285 178.68 126.065 183.228 122.268 184.36C116.871 185.957 111.455 187.479 106.033 189.007C105.598 189.129 105.082 189.169 104.647 189.082C100.188 188.205 96.5386 183.924 97.2624 179.661C98.5504 172.024 99.5317 163.55 100.531 154.117C101.01 149.599 101.801 144.499 102.752 140.044C102.93 139.22 102.463 137.89 101.801 137.332C98.1026 134.254 99.2925 129.909 105.34 128.196C111.387 126.471 113.001 126.889 119.036 125.147C120.845 124.63 120.042 124.688 121.845 124.165C122.538 123.968 123.709 123.428 124.31 123.282C127.506 122.527 126.985 123.178 128.187 125.048Z" fill="#FF7F00"/>
<path fill-rule="evenodd" clip-rule="evenodd" d="M86.0997 186.474C78.4637 184.087 75.7221 180.625 76.7219 173.214C78.5496 159.711 80.7515 146.253 82.8184 132.779C83.3152 129.555 83.7997 126.326 84.4805 123.131C84.8608 121.366 84.4867 118.293 87.4 118.857C89.792 119.315 92.92 121.035 93.7419 122.951C95.1464 126.192 95.8763 130.165 95.3304 133.609C92.7973 149.703 89.7307 165.716 86.8664 181.758C86.6027 183.332 86.3573 184.912 86.0997 186.474Z" fill="#FF7F00"/>
<path fill-rule="evenodd" clip-rule="evenodd" d="M43.6141 143.628C40.2224 143.93 36.2725 144.9 34.1933 138.343C33.8314 137.193 35.4813 128.672 35.6776 127.331C36.5301 121.54 41.909 93.6553 43.0866 88.8811C43.9576 85.3381 47.4658 66.9323 49.4285 60.5144C49.7842 59.0856 52.1824 58.7081 52.3234 58.8533C54.9792 58.5048 55.2981 58.621 56.1813 58.9985C63.529 62.1523 60.8242 67.5654 60.0944 73.7394C58.3034 88.8869 51.06 125.106 50.4712 128.823C50.0664 131.385 54.9362 128.951 55.6784 128.73C62.5845 126.651 61.7442 126.819 68.7301 124.984C71.1834 124.345 73.7594 123.439 76.9488 122.777C75.5258 126.326 74.8021 130.682 73.0418 133.295C71.7722 135.177 69.3864 136.873 67.117 137.611C59.6773 140.039 59.8184 139.795 52.2682 141.932C51.8573 142.17 40.805 143.837 43.6141 143.628Z" fill="#FF7F00"/>
<path fill-rule="evenodd" clip-rule="evenodd" d="M58.8371 208.034C56.1569 208.272 53.0289 209.044 51.379 203.846C51.0907 202.94 52.4033 196.197 52.5566 195.134C53.2313 190.557 57.4878 168.498 58.4201 164.723C59.1131 161.923 61.8853 147.363 63.4371 142.286C63.7192 141.154 65.6144 140.863 65.7309 140.968C67.8285 140.695 68.08 140.788 68.7853 141.09C74.5936 143.587 72.4531 147.862 71.8765 152.747C70.4597 164.735 64.7189 193.38 64.2589 196.325C63.94 198.346 67.7917 196.429 68.3805 196.249C73.8453 194.606 73.1829 194.739 78.7091 193.293C80.6472 192.788 82.6835 192.067 85.2104 191.545C84.088 194.356 83.5115 197.8 82.1192 199.868C81.1133 201.36 79.2304 202.696 77.4272 203.277C71.5453 205.2 71.6619 205.008 65.6819 206.692C65.3629 206.878 56.6169 208.196 58.8371 208.034Z" fill="#FF7F00"/>
<path fill-rule="evenodd" clip-rule="evenodd" d="M130.91 148.861C130.91 149.314 130.524 149.674 130.045 149.674C129.567 149.674 129.18 149.314 129.18 148.861C129.18 148.408 129.567 148.042 130.045 148.042C130.517 148.036 130.91 148.408 130.91 148.861Z" fill="black"/>
</svg>
