<svg width="662" height="622" viewBox="0 0 662 622" fill="none" xmlns="http://www.w3.org/2000/svg">
<path d="M359.858 18.9897L360.003 19.0104L360.148 18.9888C481.879 0.778942 556.976 34.5152 601.704 93.371C646.504 152.322 661 236.677 661 320C661 486.238 526.238 621 360 621C193.762 621 59.0001 486.238 59.0001 320C59.0001 278.097 43.1152 233.234 28.0829 190.933L27.8768 190.353C20.4224 169.377 13.1934 149.035 8.18414 129.933C3.12766 110.651 0.355524 92.7119 1.87058 76.7355C3.38276 60.7893 9.1638 46.8048 21.2367 35.366C33.3316 23.9063 51.8203 14.927 78.88 9.17151C133.023 -2.34469 221.123 -0.883183 359.858 18.9897Z" stroke="#FAE7CB" stroke-width="2"/>
</svg>
